<?xml version="1.0" standalone="no"?>
<!DOCTYPE svg PUBLIC "-//W3C//DTD SVG 1.1//EN" "http://www.w3.org/Graphics/SVG/1.1/DTD/svg11.dtd" >
<svg xmlns="http://www.w3.org/2000/svg">
<metadata>Generated by IcoMoon</metadata>
<defs>
<font id="icomoon" horiz-adv-x="1024">
<font-face units-per-em="1024" ascent="960" descent="-64" />
<missing-glyph horiz-adv-x="1024" />
<glyph unicode="&#x20;" horiz-adv-x="512" d="" />
<glyph unicode="&#xe15b;" glyph-name="minus" d="M810 384.667h-596v84h596v-84z" />
<glyph unicode="&#xe254;" glyph-name="pencil" d="M884 638.667l-78-78-160 160 78 78c16 16 44 16 60 0l100-100c16-16 16-44 0-60zM128 202.667l472 472 160-160-472-472h-160v160z" />
<glyph unicode="&#xe900;" glyph-name="account" d="M512 960c-282.77 0-512-229.23-512-512s229.23-512 512-512c282.77 0 512 229.23 512 512v0c0 282.77-229.23 512-512 512v0zM512 806.4c84.831 0 153.6-68.769 153.6-153.6s-68.769-153.6-153.6-153.6c-84.831 0-153.6 68.769-153.6 153.6v0c0 84.831 68.769 153.6 153.6 153.6v0zM512 79.36c0 0-0.001 0-0.002 0-127.681 0-240.201 64.912-306.36 163.536l-0.839 1.328c1.536 101.888 204.8 157.696 307.2 157.696s305.664-55.808 307.2-157.696c-66.997-99.952-179.517-164.864-307.198-164.864-0.001 0-0.001 0-0.002 0v0z" />
<glyph unicode="&#xe901;" glyph-name="archive" d="M997.837 833.126l-79.104 95.59c-15.26 19.133-38.571 31.286-64.72 31.286-0.233 0-0.465-0.001-0.698-0.003h-682.665c-0.102 0-0.223 0.001-0.344 0.001-26.432 0-50.031-12.132-65.532-31.131l-0.121-0.153-78.49-95.59c-16.272-19.24-26.164-44.331-26.164-71.732 0-0.18 0-0.36 0.001-0.539v0.028-711.117c0.203-62.75 51.017-113.563 113.747-113.766h796.486c62.75 0.203 113.563 51.017 113.766 113.747v711.136c0.001 0.152 0.001 0.332 0.001 0.512 0 27.401-9.892 52.492-26.3 71.896l0.135-0.164zM512 135.117l-312.883 312.883h199.117v113.766h227.533v-113.766h199.117zM120.627 846.234l46.080 56.883h682.65l53.453-56.883z" />
<glyph unicode="&#xe902;" glyph-name="arrow-down" horiz-adv-x="1566" d="M783.266 418.446l-541.554 541.554-241.321-241.321 782.875-782.875 782.875 782.875-241.321 241.321z" />
<glyph unicode="&#xe903;" glyph-name="arrow-left" horiz-adv-x="670" d="M315.538 448l354.231 354.231-157.769 157.769-512-512 512-512 157.769 157.769z" />
<glyph unicode="&#xe904;" glyph-name="arrow-right" horiz-adv-x="670" d="M354.231 448l-354.231-354.231 157.769-157.769 512 512-512 512-157.769-157.769z" />
<glyph unicode="&#xe905;" glyph-name="arrow-up" horiz-adv-x="1566" d="M782.875 477.554l541.554-541.554 241.321 241.321-782.875 782.875-782.875-782.875 241.321-241.321z" />
<glyph unicode="&#xe906;" glyph-name="branches" d="M796.444 220.444l-227.556 227.556v180.907c66.853 24.137 113.778 87.042 113.778 160.906 0 94.257-76.41 170.667-170.667 170.667s-170.667-76.41-170.667-170.667c0-73.864 46.924-136.769 112.589-160.53l1.188-0.376v-180.907l-227.556-227.556h-227.556v-284.444h284.444v173.511l227.556 238.933 227.556-238.933v-173.511h284.444v284.444z" />
<glyph unicode="&#xe907;" glyph-name="business" horiz-adv-x="1138" d="M568.889 732.444v227.556h-568.889v-1024h1137.778v796.444zM227.556 49.778h-113.778v113.778h113.778zM227.556 277.333h-113.778v113.778h113.778zM227.556 504.889h-113.778v113.778h113.778zM227.556 732.444h-113.778v113.778h113.778zM455.111 49.778h-113.778v113.778h113.778zM455.111 277.333h-113.778v113.778h113.778zM455.111 504.889h-113.778v113.778h113.778zM455.111 732.444h-113.778v113.778h113.778zM1024 49.778h-455.111v113.778h113.778v113.778h-113.778v113.778h113.778v113.778h-113.778v113.778h455.111zM910.222 504.889h-113.778v-113.778h113.778zM910.222 277.333h-113.778v-113.778h113.778z" />
<glyph unicode="&#xe908;" glyph-name="calendar" d="M895.545-64h-767.090c-70.758 0.064-128.132 57.278-128.455 127.969v640.031c0 0.017 0 0.038 0 0.058 0 70.661 57.282 127.943 127.943 127.943 0.2 0 0.4 0 0.6-0.001h127.457v64c0 35.346 28.654 64 64 64s64-28.654 64-64v0-64h256v64c0 35.346 28.654 64 64 64s64-28.654 64-64v0-64h127.545c70.758-0.064 128.132-57.278 128.455-127.969v-640.031c0-0.017 0-0.038 0-0.058 0-70.661-57.282-127.943-127.943-127.943-0.2 0-0.4 0-0.6 0.001h0.031zM896 704h-128v-64c0-35.346-28.654-64-64-64s-64 28.654-64 64v0 64h-256v-64c0-35.346-28.654-64-64-64s-64 28.654-64 64v0 64h-128v-640h768zM704 192c-35.346 0-64 28.654-64 64s28.654 64 64 64c35.346 0 64-28.654 64-64v0c0-35.346-28.654-64-64-64v0zM704 384c-35.346 0-64 28.654-64 64s28.654 64 64 64c35.346 0 64-28.654 64-64v0c0-35.346-28.654-64-64-64v0zM512 192c-35.346 0-64 28.654-64 64s28.654 64 64 64c35.346 0 64-28.654 64-64v0c0-35.346-28.654-64-64-64v0zM512 384c-35.346 0-64 28.654-64 64s28.654 64 64 64c35.346 0 64-28.654 64-64v0c0-35.346-28.654-64-64-64v0zM320 192c-35.346 0-64 28.654-64 64s28.654 64 64 64c35.346 0 64-28.654 64-64v0c0-35.346-28.654-64-64-64v0zM320 384c-35.346 0-64 28.654-64 64s28.654 64 64 64c35.346 0 64-28.654 64-64v0c0-35.346-28.654-64-64-64v0z" />
<glyph unicode="&#xe909;" glyph-name="camera" horiz-adv-x="1092" d="M955.255-64h-818.244c-0.142-0.001-0.31-0.001-0.478-0.001-75.405 0-136.533 61.128-136.533 136.533 0 0 0 0.001 0 0.001v0 614.4c0 0.001 0 0.001 0 0.002 0 75.165 60.739 136.144 135.814 136.531h109.264l104.585 104.926c20.284 19.046 47.467 30.955 77.423 31.605l0.128 0.002h237.841c30.078-0.687 57.251-12.588 77.616-31.667l-0.065 0.060 104.858-104.926h109.227c74.993-0.542 135.578-61.461 135.578-136.53 0-0.001 0-0.002 0-0.004v0-615.083c-0.387-75.112-61.366-135.852-136.532-135.852-0.193 0-0.385 0-0.578 0.001h0.030zM955.733 686.933h-118.921c-30.142 0.303-57.427 12.292-77.59 31.645l0.039-0.037-104.858 104.926h-216.542l-104.858-104.926c-20.11-19.338-47.404-31.334-77.497-31.607h-118.975v-614.4h819.2zM546.133 686.933c150.811 0 273.067-122.256 273.067-273.067s-122.256-273.067-273.067-273.067c-150.811 0-273.067 122.256-273.067 273.067v0c0 150.811 122.256 273.067 273.067 273.067v0zM546.133 277.333c75.405 0 136.533 61.128 136.533 136.533s-61.128 136.533-136.533 136.533c-75.405 0-136.533-61.128-136.533-136.533v0c0-75.405 61.128-136.533 136.533-136.533v0z" />
<glyph unicode="&#xe90a;" glyph-name="cash-register" d="M921.6 960h-819.2c-56.333-0.291-101.888-46.025-101.888-102.399 0 0 0-0.001 0-0.001v0l-0.512-512c0-56.554 45.846-102.4 102.4-102.4v0h819.2c56.554 0 102.4 45.846 102.4 102.4v0 512c0 56.554-45.846 102.4-102.4 102.4v0zM460.8 806.4h102.4v-102.4h-102.4zM460.8 652.8h102.4v-102.4h-102.4zM307.2 806.4h102.4v-102.4h-102.4zM307.2 652.8h102.4v-102.4h-102.4zM256 550.4h-102.4v102.4h102.4zM256 704h-102.4v102.4h102.4zM716.8 345.6h-409.6v102.4h409.6zM716.8 550.4h-102.4v102.4h102.4zM716.8 704h-102.4v102.4h102.4zM870.4 550.4h-102.4v102.4h102.4zM870.4 704h-102.4v102.4h102.4zM512-64l204.8 204.8h-409.6z" />
<glyph unicode="&#xe90b;" glyph-name="chat-bubble" d="M921.6 960h-819.2c-56.554 0-102.4-45.846-102.4-102.4v0-921.6l204.8 204.8h716.8c56.554 0 102.4 45.846 102.4 102.4v614.4c0 56.554-45.846 102.4-102.4 102.4v0zM921.6 243.2h-716.8l-102.4-102.4v716.8h819.2z" />
<glyph unicode="&#xe90c;" glyph-name="checked" horiz-adv-x="1331" d="M15.31 396.745c-9.471 9.030-15.36 21.745-15.36 35.834s5.889 26.804 15.34 35.816l0.020 0.019 71.669 71.669c9.030 9.471 21.745 15.36 35.834 15.36s26.804-5.889 35.816-15.34l0.019-0.020 5.103-5.103 281.683-302.097c4.515-4.735 10.872-7.68 17.917-7.68s13.402 2.945 17.908 7.67l0.009 0.010 686.18 711.697h5.103c9.030 9.471 21.745 15.36 35.834 15.36s26.804-5.889 35.816-15.34l0.019-0.020 71.669-71.669c9.471-9.030 15.36-21.745 15.36-35.834s-5.889-26.804-15.34-35.816l-0.020-0.019-819.2-849.931c-9.030-9.471-21.745-15.36-35.834-15.36s-26.804 5.889-35.816 15.34l-0.019 0.020-399.393 430.124-10.318 15.31z" />
<glyph unicode="&#xe90d;" glyph-name="checked-circle" d="M512-64c-282.77 0-512 229.23-512 512s229.23 512 512 512c282.77 0 512-229.23 512-512v0c-0.326-282.639-229.362-511.674-511.969-512h-0.031zM261.489 517.304c-6.429-0.094-12.215-2.773-16.379-7.040l-0.005-0.005-33.014-33.137c-4.435-4.133-7.2-10.007-7.2-16.527s2.765-12.395 7.186-16.515l0.014-0.012 4.71-7.209 184.32-198.41c4.178-4.374 10.055-7.093 16.568-7.093s12.391 2.719 16.56 7.084l0.008 0.009 378.102 392.233c4.353 4.188 7.057 10.062 7.057 16.568s-2.704 12.381-7.049 16.561l-0.007 0.007-33.137 33.014c-4.146 4.329-9.936 7.054-16.363 7.168h-0.021c-6.515-0.1-12.375-2.825-16.583-7.162l-0.006-0.006-319.037-328.458c-2.079-2.135-4.981-3.46-8.192-3.46s-6.113 1.325-8.19 3.457l-0.002 0.003-129.925 139.264c-4.646 5.702-11.574 9.391-19.37 9.665l-0.045 0.001z" />
<glyph unicode="&#xe90e;" glyph-name="class-add" d="M563.2 704h-102.4v-204.8h-204.8v-102.4h204.8v-204.8h102.4v204.8h204.8v102.4h-204.8zM512 960c-282.77 0-512-229.23-512-512s229.23-512 512-512c282.77 0 512 229.23 512 512v0c0 282.77-229.23 512-512 512v0zM512 38.4c-226.216 0-409.6 183.384-409.6 409.6s183.384 409.6 409.6 409.6c226.216 0 409.6-183.384 409.6-409.6v0c-0.32-226.087-183.513-409.28-409.569-409.6h-0.031z" />
<glyph unicode="&#xe90f;" glyph-name="class-circle" d="M1024 448c0-282.77-229.23-512-512-512s-512 229.23-512 512c0 282.77 229.23 512 512 512s512-229.23 512-512z" />
<glyph unicode="&#xe910;" glyph-name="class-color" horiz-adv-x="1084" d="M816.947 421.493l-538.507 538.507-84.882-84.942 143.377-143.377-310.248-310.188c-16.461-16.288-26.654-38.882-26.654-63.857s10.193-47.569 26.646-63.849l331.341-331.341c16.349-16.329 38.924-26.427 63.857-26.427s47.508 10.098 63.858 26.428l331.332 331.332c16.461 16.288 26.654 38.882 26.654 63.857s-10.193 47.569-26.646 63.849l-0.008 0.008zM133.316 357.576l288.561 288.621 288.441-288.621zM964.059 267.213s-120.485-130.726-120.485-210.848c0-66.542 53.943-120.485 120.485-120.485s120.485 53.943 120.485 120.485v0c0 80.243-120.485 210.848-120.485 210.848z" />
<glyph unicode="&#xe911;" glyph-name="class-create" d="M0 149.298v-213.298h213.298l629.086 629.086-213.298 213.298zM1007.334 730.037c10.222 10.281 16.54 24.453 16.54 40.1s-6.318 29.819-16.543 40.103l-133.095 133.095c-10.281 10.222-24.453 16.54-40.1 16.54s-29.819-6.318-40.103-16.543l-104.086-104.086 213.298-213.298 104.089 104.089z" />
<glyph unicode="&#xe912;" glyph-name="class-insert-photo" d="M1024 49.778v796.444c-0.193 62.76-51.018 113.584-113.759 113.778h-796.463c-62.76-0.193-113.584-51.018-113.778-113.759v-796.463c0.193-62.76 51.018-113.584 113.759-113.778h796.463c62.76 0.193 113.584 51.018 113.778 113.759v0.019zM312.889 362.667l142.222-171.236 199.111 256.569 256-341.333h-796.444z" />
<glyph unicode="&#xe913;" glyph-name="class-rectangle" d="M0 960h1024v-1024h-1024z" />
<glyph unicode="&#xe914;" glyph-name="class-text" horiz-adv-x="1170" d="M495.502 960l-495.502-1024h202.695l100.921 219.42h563.2l100.75-219.42h202.695l-494.592 1024zM371.2 301.739l214.414 463.019 214.414-463.019z" />
<glyph unicode="&#xe915;" glyph-name="clip" horiz-adv-x="929" d="M428.761 502.341c6.431 6.431 10.409 15.315 10.409 25.129 0 19.627-15.911 35.538-35.538 35.538-9.813 0-18.698-3.978-25.129-10.409v0l-187.524-187.775c-28.961-30.072-46.801-71.031-46.801-116.156 0-92.533 75.013-167.547 167.547-167.547 45.126 0 86.084 17.84 116.209 46.851l-0.052-0.050 423.735 423.798c43.718 42.542 70.84 101.947 70.84 167.686 0 129.172-104.715 233.887-233.887 233.887-65.942 0-125.511-27.29-168.028-71.192l-0.060-0.062-422.793-422.793c-54.439-54.439-88.11-129.645-88.11-212.716 0-166.141 134.684-300.825 300.825-300.825 83.071 0 158.277 33.671 212.716 88.11l187.65 187.65c6.431 6.431 10.409 15.315 10.409 25.129 0 19.627-15.911 35.538-35.538 35.538-9.813 0-18.698-3.978-25.129-10.409l-187.65-187.65c-41.837-43.149-100.342-69.93-165.102-69.93-126.951 0-229.866 102.915-229.866 229.866 0 64.666 26.703 123.096 69.684 164.864l0.055 0.053 422.793 422.793c29.148 29.374 69.537 47.559 114.172 47.559 0.301 0 0.601-0.001 0.901-0.002h-0.046c44.903-0.008 85.561-18.177 115.031-47.56l-0.004 0.004c29.374-29.148 47.559-69.537 47.559-114.172 0-0.301-0.001-0.601-0.002-0.901v0.046c-0.008-44.903-18.177-85.561-47.56-115.031l-423.668-423.668c-17.593-17.245-41.713-27.888-68.319-27.888s-50.726 10.643-68.335 27.904l0.016-0.016c-17.621 17.421-28.534 41.596-28.534 68.319s10.913 50.898 28.525 68.31l0.009 0.009 188.466 187.65z" />
<glyph unicode="&#xe916;" glyph-name="clock" d="M512-64c-282.77 0-512 229.23-512 512s229.23 512 512 512c282.77 0 512-229.23 512-512v0c0-282.77-229.23-512-512-512v0zM768 512h-192v192.64c0 35.346-28.654 64-64 64s-64-28.654-64-64v0-257.28c0.362-35.070 28.876-63.36 63.997-63.36 0.001 0 0.002 0 0.003 0h256c35.346 0 64 28.654 64 64s-28.654 64-64 64v0z" />
<glyph unicode="&#xe917;" glyph-name="cloud-up" horiz-adv-x="1260" d="M887.126 169.425c-54.919 0-110.133 0.591-164.946 0-11.295 0.277-20.374 9.379-20.615 20.656v0.023c0.591 34.092 6.928 20.679 41.231 20.679 97.628 0 191.032-0.296 288.661 0 107.303 0.296 187.991 99.445 185.562 206.747-0.946 77.548-52.133 142.891-122.474 165.052l-1.241 0.337c-10.281 2.426-18.22 10.387-20.579 20.493l-0.036 0.186c-13.862 95.605-95.258 168.228-193.616 168.228-11.729 0-23.217-1.033-34.378-3.012l1.179 0.173c-36.056-5.302-74.077 1.373-103.099-20.679-8.787-6.463-17.109-8.829-20.616 0-45.139 110.534-148.724 166.868-268.045 165.39-139.493-4.286-252.84-110.743-267.911-246.833l-0.113-1.251c-1.609-9.322-2.528-20.057-2.528-31.008s0.919-21.686 2.685-32.134l-0.157 1.126c1.753-9.695 8.217-18.039 0-20.679-81.443-25.486-140.253-98.451-144.314-185.721l-0.017-0.453c0.203-102.472 83.134-185.507 185.547-185.878h0.036c104.662-0.591 204.614-0.591 309.276 0 0.737 0.105 1.588 0.165 2.454 0.165 10.126 0 18.334-8.209 18.334-18.334 0-0.885-0.063-1.756-0.184-2.607l0.011 0.098c-0.887-30.269 9.864-20.679-20.616-20.679h-288.661c-139.557 0-256.808 108.76-247.43 248.105 5.872 87.595 46.026 144.922 123.715 186.069 8.449 4.415 20.616 10.688 20.616 20.679-0.296 168.368 103.289 300.722 268.045 330.716 16.54 2.96 35.579 4.652 55.014 4.652 114.673 0 215.585-58.921 274.112-148.14l0.766-1.244c7.921-12.357 6.844-5.576 20.616 0 143.95 57.622 309.762-35.507 350.529-186.069 2.345-9.104 11.829 4.415 20.616 0 90.299-43.217 135.733-153.138 123.715-248.105-13.476-106.711-83.244-187.061-185.562-206.747-9.277-1.053-20.030-1.653-30.923-1.653s-21.646 0.6-32.227 1.77l1.304-0.117c-40.999 0.296-82.695 0-123.736 0zM619.081 458.889c-48.962-49.385-99.276-98.283-144.33-144.732-9.083-9.104-11.237-10.287-20.616 0-23.235 24.988-23.742 17.532 0 41.358 58.932 59.143 106.014 126.397 164.946 186.069 7.33 7.351 11.829 8.808 20.616 0 63.917-64.973 141.69-142.662 206.177-206.747 7.034-7.055 8.217 6.759 0 0-9.378-7.646-30.691-41.358-41.231-41.358s-12.124 32.824-20.616 41.358c-37.809 37.619-65.48 65.754-103.099 103.374l-20.616 20.679c-4.098-5.576 0-15.673 0-20.679 0-160.531-0.591-335.701 0-496.19 0-13.223-7.139-0.591-20.616 0-30.48 0.887-20.616-9.611-20.616 20.679v475.511c-0.591 4.119 0 10.667 0 20.679z" />
<glyph unicode="&#xe918;" glyph-name="crop" d="M0 846.222v-227.556h113.778v227.556h227.556v113.778h-227.556c-62.76-0.193-113.584-51.018-113.778-113.759v-0.019zM113.778 277.333h-113.778v-227.556c0.193-62.76 51.018-113.584 113.759-113.778h227.575v113.778h-227.556zM910.222 49.778h-227.556v-113.778h227.556c62.76 0.193 113.584 51.018 113.778 113.759v227.575h-113.778zM910.222 960h-227.556v-113.778h227.556v-227.556h113.778v227.556c-0.193 62.76-51.018 113.584-113.759 113.778h-0.019z" />
<glyph unicode="&#xe919;" glyph-name="discussions" d="M972.8 755.2h-102.4v-460.8h-665.6v-102.4c0-28.277 22.923-51.2 51.2-51.2v0h563.2l204.8-204.8v768c0 28.277-22.923 51.2-51.2 51.2v0zM768 448v460.8c0 28.277-22.923 51.2-51.2 51.2v0h-665.6c-28.277 0-51.2-22.923-51.2-51.2v0-716.8l204.8 204.8h512c28.277 0 51.2 22.923 51.2 51.2v0z" />
<glyph unicode="&#xe91a;" glyph-name="discussion-two-color" d="M768 448v460.8c0 28.277-22.923 51.2-51.2 51.2v0h-665.6c-28.277 0-51.2-22.923-51.2-51.2v0-716.8l204.8 204.8h512c28.277 0 51.2 22.923 51.2 51.2v0zM972.8 755.2h-102.4v-460.8h-665.6v-102.4c0-28.277 22.923-51.2 51.2-51.2v0h563.2l204.8-204.8v768c0 28.277-22.923 51.2-51.2 51.2v0z" />
<glyph unicode="&#xe91b;" glyph-name="close" d="M512 533.197l-362.035 362.035-72.397-72.397 362.035-362.035-362.035-362.035 72.397-72.397 362.035 362.035 362.035-362.035 72.397 72.397-362.035 362.035 362.035 362.035-72.397 72.397-362.035-362.035z" />
<glyph unicode="&#xe91c;" glyph-name="dot-circle" d="M460.589 856.097v103.954c-105.127-10.833-199.009-51.977-274.648-114.428l0.868 0.696 73.077-73.591c55.547 43.691 123.941 73.512 198.659 83.154l2.044 0.215zM837.294 846.319c-74.772 61.755-168.653 102.899-271.586 113.548l-2.194 0.184v-103.954c76.762-9.857 145.156-39.678 201.583-84.036l-0.88 0.667 73.077 73.591zM920.149 499.462h103.954c-10.833 105.127-51.977 199.009-114.428 274.648l0.696-0.868-73.591-73.077c43.691-55.547 73.512-123.941 83.154-198.659l0.215-2.044zM187.323 700.166l-73.591 73.077c-61.755-74.772-102.899-168.653-113.548-271.586l-0.184-2.194h103.954c9.857 76.762 39.678 145.156 84.036 201.583l-0.667-0.88zM103.954 396.538h-103.954c10.833-105.127 51.977-199.009 114.428-274.648l-0.696 0.868 73.591 73.591c-43.775 55.337-73.615 123.583-83.159 198.175l-0.21 2.014zM666.439 448c0 85.266-69.122 154.387-154.387 154.387s-154.387-69.122-154.387-154.387c0-85.266 69.122-154.387 154.387-154.387v0c85.266 0 154.387 69.122 154.387 154.387v0zM836.78 195.834l73.591-73.591c61.671 74.813 102.796 168.67 113.544 271.564l0.188 2.216h-103.954c-9.963-76.574-39.768-144.775-84.035-201.067l0.666 0.878zM563.514 39.903v-103.954c105.127 10.833 199.009 51.977 274.648 114.428l-0.868-0.696-73.591 73.591c-55.337-43.775-123.583-73.615-198.175-83.159l-2.014-0.21zM186.809 49.681c74.813-61.671 168.67-102.796 271.564-113.544l2.216-0.188v103.954c-76.762 9.857-145.156 39.678-201.583 84.036l0.88-0.667z" />
<glyph unicode="&#xe91d;" glyph-name="dots" horiz-adv-x="4096" d="M512 960c-282.77 0-512-229.23-512-512s229.23-512 512-512c282.77 0 512 229.23 512 512v0c-0.87 282.419-229.581 511.13-511.917 512h-0.083zM3584 960c-282.77 0-512-229.23-512-512s229.23-512 512-512c282.77 0 512 229.23 512 512v0c-0.87 282.419-229.581 511.13-511.917 512h-0.083zM2048 960c-282.77 0-512-229.23-512-512s229.23-512 512-512c282.77 0 512 229.23 512 512v0c-0.87 282.419-229.581 511.13-511.917 512h-0.083z" />
<glyph unicode="&#xe91e;" glyph-name="dotted-photo" horiz-adv-x="1252" d="M1251.589 277.308h-113.769v-113.769h113.769zM1251.589 504.872h-113.769v-113.769h113.769zM1251.589 49.744h-113.769v-113.769c61.035 4.278 109.492 52.734 113.748 113.383l0.022 0.387zM796.461 960h-113.769v-113.769h113.769zM1251.589 732.436h-113.769v-113.769h113.769zM1137.819 960v-113.769h113.769c-4.278 61.035-52.734 109.492-113.383 113.748l-0.387 0.022zM113.769-64.025h455.128v341.333h-568.897v-227.564c0.199-62.753 51.016-113.571 113.75-113.769h0.019zM113.769 732.436h-113.769v-113.769h113.769zM796.461 49.744h-113.769v-113.769h113.769zM1024.025 960h-113.769v-113.769h113.769zM1024.025 49.744h-113.769v-113.769h113.769zM113.769 960c-61.035-4.278-109.492-52.734-113.748-113.383l-0.022-0.387h113.769zM113.769 504.872h-113.769v-113.769h113.769zM568.897 960h-113.769v-113.769h113.769zM341.333 960h-113.769v-113.769h113.769z" />
<glyph unicode="&#xe91f;" glyph-name="dotted-rectangle" d="M0 391.117h113.766v113.766h-113.766zM0 163.584h113.766v113.766h-113.766zM113.766-64v113.766h-113.766c0-62.831 50.935-113.766 113.766-113.766v0zM0 618.65h113.766v113.818h-113.766zM682.65-64h113.766v113.766h-113.766zM910.234 960h-568.883c-0.015 0-0.033 0-0.051 0-62.831 0-113.766-50.935-113.766-113.766v0-568.883c0-62.831 50.935-113.766 113.766-113.766v0h568.934c62.75 0.203 113.563 51.017 113.766 113.747v568.902c-0.203 62.75-51.017 113.563-113.747 113.766h-0.019zM910.234 277.35h-568.883v568.883h568.883zM455.117-64h113.766v113.766h-113.766zM227.533-64h113.818v113.766h-113.818z" />
<glyph unicode="&#xe920;" glyph-name="drafts" horiz-adv-x="1078" d="M1077.356 582.737c0.002 0.224 0.003 0.489 0.003 0.753 0 38.205-20.057 71.726-50.216 90.606l-0.448 0.261-487.747 285.642-487.747-285.642c-30.919-19.196-51.2-52.964-51.2-91.469 0-0.053 0-0.107 0-0.16v0.008-538.947c0.183-59.457 48.333-107.606 107.772-107.789h862.334c59.457 0.183 107.606 48.333 107.789 107.772v0.018zM538.947 313.263l-445.171 278.097 445.171 260.851 445.171-260.851z" />
<glyph unicode="&#xe921;" glyph-name="edit" horiz-adv-x="1025" d="M58.755 773.483h425.945c-18.201-18.201-36.145-36.35-54.345-54.55l-62.702-62.907h-250.399v-602.772h602.772v250.604l117.253 117.253v-426.355c-0.029-32.437-26.317-58.725-58.752-58.755h-719.771c-32.437 0.029-58.725 26.317-58.755 58.752v720.233c0.058 32.32 26.272 58.498 58.601 58.498 0.054 0 0.108 0 0.162 0h-0.008zM1013.49 809.371c4.619-12.73 8.742-28.079 11.619-43.863l0.275-1.818c-0.656-11.808-5.815-22.297-13.773-29.873l-0.018-0.017q-259.576-259.268-518.947-518.947c-6.041-6.18-13.89-10.568-22.691-12.31l-0.277-0.046q-111.921-23.533-223.841-47.219c-1.828-0.555-3.929-0.875-6.104-0.875-12.006 0-21.738 9.732-21.738 21.738 0 2.175 0.32 4.276 0.914 6.258l-0.040-0.154c15.893 75.263 31.582 150.475 48.091 225.585 2.059 8.019 5.985 14.938 11.298 20.527l-0.019-0.020c49.526 50.141 99.462 99.924 149.245 149.655q184.569 184.569 369.138 369.548c6.622 7.71 16.381 12.563 27.274 12.563 1.355 0 2.692-0.075 4.008-0.221l-0.162 0.015c15.004-1.057 28.964-4.034 42.125-8.7l-1.109 0.343c65.709-26.6 117.063-77.153 144.086-140.563l0.647-1.709zM444.35 249.511c-2.76 12.613-6.43 23.642-11.105 34.125l0.441-1.108c-20.635 38.685-52.001 69.326-90.123 88.513l-1.187 0.542c-9.241 5.121-20.263 8.136-31.989 8.136-1.769 0-3.522-0.069-5.257-0.203l0.23 0.014c-6.665-31.582-13.586-62.292-19.636-93.207v0c32.942-5.88 58.682-31.051 65.329-63.204l0.090-0.523c29.070 5.845 57.883 12.356 87.158 18.201 5.435 0.769 7.742 3.281 6.050 8.716z" />
<glyph unicode="&#xe922;" glyph-name="educator" horiz-adv-x="1096" d="M769.295 49.885c-1.324 0.348-2.844 0.548-4.41 0.548-8.411 0-15.476-5.762-17.463-13.554l-0.027-0.125-18.069-72.277c-0.348-1.324-0.547-2.843-0.547-4.409 0-8.424 5.772-15.499 13.577-17.488l0.125-0.027c1.283-0.337 2.756-0.53 4.275-0.53 0.039 0 0.077 0 0.116 0h-0.006c8.416 0.007 15.486 5.767 17.488 13.559l0.027 0.125 18.069 72.277c0.341 1.312 0.536 2.818 0.536 4.369 0 8.424-5.765 15.502-13.565 17.504l-0.125 0.027zM548.102 411.801c0.011 0 0.025 0 0.038 0 2.481 0 4.845 0.505 6.993 1.418l-0.117-0.044 198.762 82.252c6.605 2.788 11.157 9.21 11.157 16.696 0 9.98-8.091 18.071-18.071 18.071-2.495 0-4.871-0.506-7.033-1.42l0.119 0.045-191.824-79.505-505.941 209.339v5.999c0 9.979-8.090 18.069-18.069 18.069s-18.069-8.090-18.069-18.069v0-18.069c0-0.002 0-0.005 0-0.008 0-7.49 4.563-13.913 11.060-16.644l0.119-0.044 524.010-216.832c1.949-0.794 4.211-1.255 6.58-1.255 0.101 0 0.201 0.001 0.301 0.002h-0.015zM763.055 226.675c-3.019 5.989-9.121 10.026-16.165 10.026-2.886 0-5.613-0.677-8.032-1.882l0.105 0.047c-50.591-24.15-109.86-38.589-172.417-39.388l-0.277-0.003v162.118c0 9.979-8.090 18.069-18.069 18.069s-18.069-8.090-18.069-18.069v0-161.925c-224.373 7.228-296.77 143.061-307.178 165.708v122.703c0 9.979-8.090 18.069-18.069 18.069s-18.069-8.090-18.069-18.069v0-126.485c0-0.003 0-0.005 0-0.008 0-2.417 0.469-4.724 1.321-6.836l-0.044 0.123c3.156-7.83 80.059-192.041 360.109-192.041 2.965-0.068 6.459-0.107 9.963-0.107 71.452 0 139.136 16.137 199.604 44.967l-2.806-1.204c5.972 3.019 9.995 9.107 9.995 16.135 0 2.936-0.702 5.707-1.947 8.156l0.047-0.102zM819.142 32.346c-9.979 0-18.069-8.090-18.069-18.069v0-54.208c0-9.979 8.090-18.069 18.069-18.069s18.069 8.090 18.069 18.069v0 54.208c0 9.979-8.090 18.069-18.069 18.069v0zM1072.113 682.865c-9.979 0-18.069-8.090-18.069-18.069v0-5.951l-216.832-89.142v32.525l241.791 100.080c6.607 2.786 11.16 9.209 11.16 16.696s-4.553 13.91-11.041 16.652l-0.119 0.045-524.034 216.832c-2.040 0.865-4.413 1.368-6.902 1.368s-4.862-0.503-7.021-1.413l0.119 0.045-524.010-216.832c-6.607-2.786-11.16-9.209-11.16-16.696s4.553-13.91 11.041-16.652l0.119-0.045 524.010-216.832c2.039-0.869 4.412-1.374 6.902-1.374s4.863 0.505 7.021 1.419l-0.118-0.044 189.487 78.397c6.959 2.618 11.82 9.218 11.82 16.954 0 9.979-8.090 18.069-18.069 18.069-2.741 0-5.339-0.61-7.667-1.702l0.111 0.047-182.548-75.53-476.765 197.293 476.765 197.269 476.765-197.269-207.46-85.841-198.714 74.205c1.044 3.487 1.658 7.496 1.686 11.645v0.016c0 30.381-31.754 54.208-72.277 54.208s-72.277-23.827-72.277-54.208 31.754-54.208 72.277-54.208c0.323-0.004 0.705-0.007 1.088-0.007 16.9 0 32.678 4.8 46.047 13.111l-0.371-0.215 206.207-77.023v-445.156c-21.234-7.666-36.139-27.647-36.139-51.108 0-29.938 24.27-54.208 54.208-54.208s54.208 24.27 54.208 54.208c0 23.461-14.904 43.441-35.761 50.988l-0.377 0.119v102.561c31.429 23.995 55.874 55.619 70.761 92.155l0.529 1.468c0.623 1.759 0.985 3.788 0.988 5.901v126.486c0 9.979-8.090 18.069-18.069 18.069s-18.069-8.090-18.069-18.069v0-123.136c-9.215-21.094-21.374-39.166-36.203-54.661l0.065 0.068v224.059l241.791 99.502c6.617 2.782 11.179 9.21 11.179 16.704 0 0.031 0 0.062 0 0.093v-0.005 18.069c0 9.979-8.090 18.069-18.069 18.069v0zM548.102 700.934c-22.069 0-36.139 10.697-36.139 18.069s14.070 18.069 36.139 18.069 36.139-10.697 36.139-18.069-14.070-18.069-36.139-18.069zM819.142 86.578c-9.979 0-18.069 8.090-18.069 18.069s8.090 18.069 18.069 18.069c9.979 0 18.069-8.090 18.069-18.069v0c-0.014-9.974-8.095-18.056-18.068-18.069h-0.001zM890.865 36.658c-2.035 7.917-9.109 13.673-17.527 13.673-9.98 0-18.070-8.090-18.070-18.070 0-1.562 0.198-3.077 0.57-4.522l-0.027 0.125 18.069-72.277c2.030-7.918 9.099-13.678 17.514-13.684h0.001c0.032 0 0.070 0 0.107 0 1.519 0 2.993 0.193 4.399 0.557l-0.122-0.027c7.928 2.026 13.696 9.106 13.696 17.532 0 1.56-0.198 3.073-0.569 4.517l0.027-0.125z" />
<glyph unicode="&#xe923;" glyph-name="email-envelope" horiz-adv-x="1280" d="M1152 960h-1024c-70.611-0.202-127.798-57.389-128-127.981v-768.019c0.202-70.611 57.389-127.798 127.981-128h1024.019c70.611 0.202 127.798 57.389 128 127.981v768.019c-0.202 70.611-57.389 127.798-127.981 128h-0.019zM1152 704l-512-320-512 320v128l512-320 512 320z" />
<glyph unicode="&#xe924;" glyph-name="enter" horiz-adv-x="904" d="M903.509 297.387l-361.387-361.387-85.333 85.333 216.235 215.637h-673.024v723.029h120.491v-602.368h552.363l-216.235 215.637 85.333 85.333z" />
<glyph unicode="&#xe925;" glyph-name="envelope" horiz-adv-x="1170" d="M1023.48-64h-876.674c-80.867 0.073-146.437 65.46-146.806 146.25v731.464c0 0.020 0 0.043 0 0.066 0 80.755 65.465 146.221 146.221 146.221 0.229 0 0.457-0.001 0.686-0.002h876.574c80.867-0.073 146.437-65.46 146.806-146.25v-731.464c0-0.020 0-0.043 0-0.066 0-80.755-65.465-146.221-146.221-146.221-0.229 0-0.457 0.001-0.686 0.002h0.035zM1024 82.286v624.152l-361.683-372.541c-19.863-19.876-47.31-32.17-77.629-32.17s-57.766 12.294-77.628 32.17l-0.001 0.001-360.773 371.241v-622.852zM923.811 813.714h-678.051l338.928-349.655z" />
<glyph unicode="&#xe926;" glyph-name="equalizer" horiz-adv-x="1235" d="M1203.003 849.619h-761.169v30.104c0 0.046 0 0.1 0 0.154 0 44.224-35.828 80.079-80.042 80.123h-124.203c-44.224 0-80.079-35.828-80.123-80.042v-30.108h-125.433c-17.692 0-32.034-14.342-32.034-32.034s14.342-32.034 32.034-32.034h125.433v-30.104c0.044-44.19 35.855-80.002 80.042-80.046h124.28c44.19 0.044 80.002 35.855 80.046 80.042v30.108h761.169c17.692 0 32.034 14.342 32.034 32.034s-14.342 32.034-32.034 32.034v0zM377.767 755.679c-0.044-8.807-7.171-15.935-15.974-15.978h-124.202c-8.807 0.044-15.935 7.171-15.978 15.974v124.28c0.044 8.807 7.171 15.935 15.974 15.978h124.202c8.807-0.044 15.935-7.171 15.978-15.974v-0.004zM1203.003 493.156h-125.433v30.104c-0.044 44.19-35.855 80.002-80.042 80.046h-124.28c-44.19-0.044-80.002-35.855-80.046-80.042v-30.108h-761.169c-17.692 0-32.034-14.342-32.034-32.034s14.342-32.034 32.034-32.034v0h761.169v-30.104c0.044-44.19 35.855-80.002 80.042-80.046h124.203c44.19 0.044 80.002 35.855 80.046 80.042v30.108h125.511c17.692 0 32.034 14.342 32.034 32.034s-14.342 32.034-32.034 32.034v0zM1013.502 399.062c-0.044-8.807-7.171-15.935-15.974-15.978h-124.28c-8.807 0.044-15.935 7.171-15.978 15.974v124.202c0.044 8.807 7.171 15.935 15.974 15.978h124.202c8.807-0.044 15.935-7.171 15.978-15.974v-0.004zM1203.003 110.295h-536.16v30.104c-0.044 44.218-35.899 80.046-80.123 80.046-0.027 0-0.054 0-0.082 0h-124.117c-44.19-0.044-80.002-35.855-80.046-80.042v-30.108h-350.442c-17.692 0-32.034-14.342-32.034-32.034s14.342-32.034 32.034-32.034h350.442v-30.104c0.044-44.19 35.855-80.002 80.042-80.046h124.125c44.224 0 80.079 35.828 80.123 80.042v30.108h536.238c17.692 0 32.034 14.342 32.034 32.034s-14.342 32.034-32.034 32.034v0zM602.775 16.123c-0.044-8.807-7.171-15.935-15.974-15.978h-124.28c-8.807 0.044-15.935 7.171-15.978 15.974v124.28c0.044 8.807 7.171 15.935 15.974 15.978h124.125c8.807-0.044 15.935-7.171 15.978-15.974v-0.004z" />
<glyph unicode="&#xe927;" glyph-name="eye" horiz-adv-x="1502" d="M750.953 960c-339.396-0.21-629.788-209.792-749.026-506.568l-1.927-5.432c120.974-302.367 411.474-512.069 750.953-512.069s629.979 209.703 749.031 506.637l1.923 5.432c-121.165 302.208-411.558 511.79-750.927 512h-0.026zM750.953 106.617c-188.499 0-341.308 152.809-341.308 341.308s152.809 341.308 341.308 341.308c188.499 0 341.308-152.809 341.308-341.308v0c-0.086-188.465-152.843-341.223-341.3-341.308h-0.008zM750.953 652.785c-113.1 0-204.785-91.685-204.785-204.785s91.685-204.785 204.785-204.785c113.1 0 204.785 91.685 204.785 204.785v0c0 0.067 0 0.146 0 0.225 0 112.975-91.584 204.56-204.56 204.56-0.079 0-0.159 0-0.238 0h0.013z" />
<glyph unicode="&#xe928;" glyph-name="filetype-zip" horiz-adv-x="832" d="M576 704v251.324c26.614-6.547 49.616-19.409 68.169-36.932l-0.073 0.068 146.432-146.364c17.357-18.527 30.181-41.511 36.573-67.044l0.223-1.052h-251.324zM448 704c0-70.692 57.308-128 128-128v0h256v-512c0-70.692-57.308-128-128-128v0h-576c0 0-0.001 0-0.001 0-70.692 0-128 57.308-128 128 0 0.18 0 0.36 0.001 0.54v-0.028 766.976c0 0.046 0 0.1 0 0.154 0 70.764 57.264 128.154 127.98 128.358h320.020z" />
<glyph unicode="&#xe929;" glyph-name="filter" horiz-adv-x="1025" d="M1021.038 931.63c-6.289 16.795-22.204 28.534-40.861 28.534-0.736 0-1.468-0.018-2.195-0.054l0.102 0.004h-930.8c-0.62 0.032-1.346 0.050-2.076 0.050-18.646 0-34.55-11.741-40.723-28.234l-0.098-0.3c-2.861-5.525-4.539-12.060-4.539-18.988 0-12.762 5.694-24.194 14.68-31.894l0.057-0.047 358.5-358.5v-353.202c-0.001-0.113-0.002-0.247-0.002-0.381 0-12.724 5.307-24.208 13.828-32.36l0.017-0.016 186.171-186.171c7.921-8.533 19.2-13.856 31.721-13.856 0.364 0 0.727 0.005 1.089 0.013l-0.054-0.001c6.569 0.093 12.801 1.424 18.51 3.768l-0.337-0.123c16.793 6.27 28.534 22.175 28.534 40.821 0 0.73-0.018 1.456-0.054 2.178l0.004-0.102v539.43l358.5 358.5c8.973 7.745 14.617 19.133 14.617 31.84 0 6.968-1.697 13.539-4.701 19.323l0.11-0.233z" />
<glyph unicode="&#xe92a;" glyph-name="find-page" horiz-adv-x="819" d="M819.2 59.392v593.408l-307.2 307.2h-409.6c-56.333-0.291-101.888-46.025-101.888-102.399 0 0 0-0.001 0-0.001v0l-0.512-819.2c0 0 0-0.001 0-0.001 0-56.374 45.555-102.108 101.86-102.399h614.94c22.996 0.048 44.186 7.737 61.178 20.662l-0.25-0.182-226.816 226.816c-39.755-26.652-88.679-42.536-141.312-42.536-141.385 0-256 114.615-256 256 0 0.014 0 0.028 0 0.042v-0.003c1.088 81.004 38.572 153.038 96.808 200.637l0.472 0.374c41.724 34.259 95.662 55.026 154.451 55.026 1.501 0 2.999-0.014 4.493-0.040l-0.224 0.003c0.109 0 0.239 0 0.368 0 141.187 0 255.642-114.455 255.642-255.642 0-52.578-15.873-101.45-43.089-142.083l0.583 0.924zM256 396.8c0-84.831 68.769-153.6 153.6-153.6s153.6 68.769 153.6 153.6c0 84.831-68.769 153.6-153.6 153.6v0c-84.831 0-153.6-68.769-153.6-153.6v0z" />
<glyph unicode="&#xe92b;" glyph-name="expand" d="M307.2 665.6v204.8c0 56.32 46.080 102.4 102.4 102.4h512c56.554 0 102.4-45.846 102.4-102.4v0-512c0-56.554-45.846-102.4-102.4-102.4v0h-204.8v-204.8c0-56.554-45.846-102.4-102.4-102.4v0h-512c-56.554 0-102.4 45.846-102.4 102.4v0 512c0 56.32 46.080 102.4 102.4 102.4h204.8zM409.6 665.6h204.8c56.554 0 102.4-45.846 102.4-102.4v0-204.8h204.8v512h-512v-204.8zM102.4 563.2v-512h512v512h-512z" />
<glyph unicode="&#xe92c;" glyph-name="flag" horiz-adv-x="904" d="M566.231 839.537l-24.125 120.463h-542.106v-1024h120.463v421.642h337.306l24.084-120.463h421.683v602.358z" />
<glyph unicode="&#xe92d;" glyph-name="folder" horiz-adv-x="1170" d="M0 82.286c0.332-80.829 65.906-146.231 146.768-146.286h876.744c0.145-0.001 0.316-0.001 0.488-0.001 80.791 0 146.286 65.494 146.286 146.286 0 0 0 0.001 0 0.001v0 585.143c0 0.001 0 0.001 0 0.002 0 80.551-65.106 145.896-145.566 146.284h-0.037l-336.847 0.683-111.567 111.762c-21.757 20.423-50.922 33.179-83.057 33.839l-0.13 0.002h-347.38c-80.539-0.333-145.701-65.699-145.701-146.285 0 0 0-0.001 0-0.001v0z" />
<glyph unicode="&#xe92e;" glyph-name="format-bold" horiz-adv-x="786" d="M629.014 463.306c68.23 44.72 114.29 118.417 120.664 203.185l0.054 0.89c0.024 1.381 0.037 3.011 0.037 4.644 0 159.064-128.947 288.010-288.010 288.010-1.604 0-3.206-0.013-4.804-0.039l0.241 0.003h-457.196v-1024h514.962c150.621 3.332 271.448 126.222 271.448 277.331 0 109.537-63.489 204.245-155.675 249.333l-1.638 0.723zM219.464 777.155h219.464c60.603 0 109.732-49.129 109.732-109.732s-49.129-109.732-109.732-109.732v0h-219.464zM475.464 118.845h-256v219.382h256c60.603 0 109.732-49.129 109.732-109.732s-49.129-109.732-109.732-109.732v0z" />
<glyph unicode="&#xe92f;" glyph-name="format-borders" d="M0 960v-1024h1024v1024zM455.104 49.792h-341.312v341.312h341.312zM455.104 504.896h-341.312v341.312h341.312zM910.208 49.792h-341.312v341.312h341.312zM910.208 504.896h-341.312v341.312h341.312z" />
<glyph unicode="&#xe930;" glyph-name="format-code" horiz-adv-x="1707" d="M631.468 55.516l-392.532 392.532 392.532 392.532-119.516 119.42-511.952-511.952 511.952-511.952zM1075.166 55.516l392.532 392.532-392.532 392.532 119.42 119.42 511.952-511.952-511.952-511.952-119.42 119.42z" />
<glyph unicode="&#xe931;" glyph-name="format-decrease-indent" d="M455.104 163.584h568.896v113.728h-568.896zM0 448l227.584-227.584v455.168zM0-64h1024v113.792h-1024zM0 960v-113.792h1024v113.792zM455.104 618.688h568.896v113.728h-568.896zM455.104 391.104h568.896v113.792h-568.896z" />
<glyph unicode="&#xe932;" glyph-name="format-increase-indent" d="M0-64h1024v113.792h-1024zM0 675.584v-455.104l227.584 227.52zM455.104 163.584h568.896v113.728h-568.896zM0 960v-113.792h1024v113.792zM455.104 618.688h568.896v113.728h-568.896zM455.104 391.104h568.896v113.792h-568.896z" />
<glyph unicode="&#xe933;" glyph-name="format-italic" horiz-adv-x="878" d="M292.618 960v-219.464h161.615l-250.158-585.155h-204.076v-219.464h585.155v219.464h-161.615l250.158 585.155h204.076v219.464z" />
<glyph unicode="&#xe934;" glyph-name="format-link" horiz-adv-x="2048" d="M194.57 448.058c0.197 175.201 142.171 317.175 317.353 317.372h409.665v194.57h-409.646c-282.77 0-512-229.23-512-512s229.23-512 512-512v0h409.646v194.57h-409.646c-175.241 0.197-317.241 142.237-317.372 317.475v0.013zM614.354 345.646h819.177v204.708h-819.177zM1535.942 960h-409.531v-194.57h409.646c172.723-3.395 311.44-144.213 311.44-317.43s-138.717-314.035-311.123-317.425l-0.317-0.005h-409.646v-194.57h409.646c282.77 0 512 229.23 512 512s-229.23 512-512 512v0z" />
<glyph unicode="&#xe935;" glyph-name="format-list-bulleted" horiz-adv-x="1263" d="M102.377 550.415c-56.541 0-102.377-45.836-102.377-102.377s45.836-102.377 102.377-102.377c56.541 0 102.377 45.836 102.377 102.377v0c0 0.023 0 0.050 0 0.077 0 56.499-45.801 102.3-102.3 102.3-0.027 0-0.054 0-0.081 0h0.004zM102.377 960c-56.508-0.044-102.3-45.863-102.3-102.377 0-56.541 45.836-102.377 102.377-102.377s102.377 45.836 102.377 102.377v0c0 0.023 0 0.050 0 0.077 0 56.499-45.801 102.3-102.3 102.3-0.054 0-0.108 0-0.162 0h0.008zM102.377 140.754c-56.508-0.044-102.3-45.863-102.3-102.377 0-56.541 45.836-102.377 102.377-102.377s102.377 45.836 102.377 102.377v0c-0.174 56.498-45.95 102.246-102.441 102.377h-0.013zM307.208-29.9h955.723v136.554h-955.723zM307.208 379.685h955.723v136.554h-955.723zM307.208 925.823v-136.477h955.723v136.554z" />
<glyph unicode="&#xe936;" glyph-name="format-list-numbered" horiz-adv-x="1216" d="M0 127.955h128.018v-31.968h-64.009v-64.009h64.009v-31.968h-128.018v-64.009h192.027v255.964h-192.027zM64.009 703.964h64.009v256.036h-128.018v-64.009h64.009zM0 512.009h115.202l-115.202-134.426v-57.601h192.027v64.009h-115.202l115.202 134.426v57.601h-192.027zM319.973 895.991v-128.018h896.054v128.018zM319.973 0.009h896.054v127.946h-896.054zM319.973 383.991h896.054v128.018h-896.054z" />
<glyph unicode="&#xe937;" glyph-name="format-strikethrough" horiz-adv-x="1228" d="M289.271 567.73c-16.816 31.499-26.692 68.892-26.692 108.593 0 1.865 0.022 3.725 0.065 5.58l-0.005-0.275c-0.013 0.938-0.021 2.045-0.021 3.154 0 40.5 10.119 78.637 27.968 112.020l-0.624-1.277c18.833 35.213 44.303 64.535 74.974 87.229l0.702 0.496c33.201 23.973 71.74 43.297 113.2 55.917l2.769 0.725c43.646 12.771 93.786 20.117 145.642 20.117 1.090 0 2.179-0.003 3.268-0.010l-0.168 0.001c2.045 0.033 4.458 0.051 6.876 0.051 51.444 0 100.916-8.446 147.104-24.026l-3.243 0.949c44.377-14.543 82.718-36.439 115.587-64.549l-0.462 0.386c31.015-26.357 55.92-58.905 72.966-95.826l0.714-1.724c16.393-35.513 25.953-77.065 25.953-120.849 0-0.929-0.004-1.857-0.013-2.784l0.001 0.142h-205.307c0.007 0.559 0.011 1.219 0.011 1.881 0 20.173-3.749 39.469-10.588 57.232l0.369-1.090c-6.332 18.231-16.636 33.703-29.934 45.981l-0.076 0.069c-14.296 12.992-31.359 23.229-50.173 29.704l-1.020 0.305c-20.926 6.919-45.015 10.91-70.035 10.91-0.796 0-1.591-0.004-2.385-0.012l0.122 0.001c-1.546 0.036-3.367 0.056-5.194 0.056-23.18 0-45.596-3.272-66.811-9.378l1.702 0.419c-18.787-5.501-35.148-13.907-49.489-24.829l0.368 0.269c-12.449-10.139-22.552-22.646-29.715-36.885l-0.294-0.646c-6.441-13.101-10.208-28.516-10.208-44.811 0-0.085 0-0.17 0-0.254v0.013c1.216-35.461 21.061-66.025 50.010-82.328l0.492-0.255c27.719-18.997 59.592-35.065 93.553-46.614l2.768-0.818h-314.675c-3.224 5.449-7.675 11.589-10.054 17.039zM1228.002 345.999v136.462h-1228.002v-136.462h656.29c12.28-4.759 27.323-9.517 37.531-13.662 22.645-9.921 42.16-21.557 60-35.264l-0.672 0.496c12.91-10.032 22.957-23.163 29.097-38.296l0.221-0.617c4.866-13.727 7.679-29.559 7.679-46.048 0-0.352-0.001-0.703-0.004-1.054v0.054c-0.064-16.311-3.561-31.79-9.804-45.773l0.287 0.72c-6.729-14.519-16.439-26.638-28.414-35.989l-0.214-0.161c-13.769-10.434-29.913-18.618-47.4-23.618l-1.029-0.252c-20.232-5.657-43.465-8.908-67.458-8.908-0.568 0-1.136 0.002-1.704 0.005h0.087c-1.367-0.021-2.98-0.032-4.596-0.032-26.937 0-53.114 3.258-78.157 9.4l2.242-0.465c-23.69 5.752-44.47 15.645-62.571 28.965l0.48-0.337c-17.302 13.344-30.986 30.547-39.885 50.364l-0.332 0.828c-10.77 24.435-17.061 52.921-17.115 82.87v0.020h-202.62c-0.013-1.092-0.020-2.383-0.020-3.675 0-37.089 5.989-72.78 17.052-106.157l-0.684 2.382c11.029-31.585 26.064-58.948 44.861-83.255l-0.499 0.671c19.152-24.164 41.182-44.901 65.849-62.12l1.001-0.662c23.992-17.035 51.416-31.954 80.565-43.447l2.632-0.915c26.724-10.854 58.415-20.275 91.182-26.695l3.374-0.551c29.381-5.397 63.334-8.624 97.99-8.901l0.25-0.002c2.196-0.033 4.789-0.051 7.386-0.051 50.307 0 98.979 6.996 145.098 20.069l-3.742-0.907c43.409 11.987 81.355 30.403 114.986 54.466l-1.089-0.74c30.652 22.696 55.312 51.727 72.357 85.278l0.633 1.373c16.384 32.913 25.972 71.686 25.972 112.698 0 1.393-0.011 2.783-0.033 4.171l0.003-0.209c0.035 1.605 0.054 3.498 0.054 5.395 0 37.723-7.811 73.621-21.905 106.166l0.667-1.731c-4.069 9.051-7.939 16.428-12.18 23.56l0.59-1.072h263.713z" />
<glyph unicode="&#xe938;" glyph-name="format-underline" horiz-adv-x="796" d="M398.208 163.584c188.428 0.182 341.13 152.884 341.312 341.294v455.122h-142.208v-455.104c0-109.962-89.142-199.104-199.104-199.104s-199.104 89.142-199.104 199.104v455.104h-142.208v-455.104c0.182-188.428 152.884-341.13 341.294-341.312h0.018zM0 49.792v-113.792h796.416v113.792z" />
<glyph unicode="&#xe939;" glyph-name="forward" horiz-adv-x="1327" d="M914.857-61.715c-17.296 6.058-29.478 22.241-29.478 41.27 0 0.026 0 0.052 0 0.078v-0.004 198.094h-841.677c-24.136 0-43.701 19.566-43.701 43.701v0 452.933c0 0.022 0 0.048 0 0.074 0 24.095 19.533 43.628 43.628 43.628 0.026 0 0.052 0 0.078 0h841.452v198.315c0.014 24.085 19.541 43.604 43.628 43.604 14.155 0 26.736-6.741 34.707-17.189l0.078-0.106 354.107-468.262c5.486-7.233 8.788-16.386 8.788-26.309s-3.302-19.076-8.868-26.418l0.079 0.109-354.181-468.335c-8.030-10.627-20.644-17.423-34.845-17.423-4.935 0-9.678 0.821-14.101 2.333l0.307-0.091z" />
<glyph unicode="&#xe93a;" glyph-name="full" horiz-adv-x="1023" d="M866.176 695.488l-10.944-119.424c-0.285-2.54-0.448-5.485-0.448-8.468 0-0.015 0-0.031 0-0.046v0.002c0-0.1-0.001-0.219-0.001-0.338 0-20.793 8.439-39.616 22.079-53.228l0.001-0.001c13.721-13.823 32.731-22.379 53.739-22.379 35.353 0 65.047 24.231 73.38 56.991l0.113 0.524 0.512 1.984c1.134 4.918 1.783 10.564 1.783 16.363 0 2.418-0.113 4.81-0.334 7.171l0.023-0.302 15.808 295.744c0.873 4.312 1.372 9.27 1.372 14.343 0 41.779-33.869 75.648-75.648 75.648-0.37 0-0.739-0.003-1.108-0.008l0.056 0.001c-0.489 0.045-1.057 0.071-1.632 0.071s-1.143-0.026-1.704-0.077l0.072 0.005-300.8-16.128c-2.103 0.208-4.546 0.326-7.017 0.326-5.378 0-10.625-0.562-15.685-1.629l0.493 0.087c-1.756-0.208-3.357-0.636-4.855-1.26l0.119 0.044c-13.125-3.596-24.396-10.266-33.413-19.205l0.005 0.005c-13.341-13.946-21.553-32.894-21.553-53.76s8.212-39.814 21.58-53.789l-0.027 0.029c13.637-13.666 32.493-22.121 53.322-22.121 3.018 0 5.995 0.178 8.92 0.523l-0.355-0.034c0.448 0 0.896 0 1.344 0l113.92 10.496-202.048-201.984c-14.085-13.811-22.815-33.037-22.815-54.303 0-41.991 34.041-76.032 76.032-76.032 21.266 0 40.492 8.73 54.291 22.803l0.012 0.012zM380.736-47.872c2.103-0.208 4.546-0.326 7.017-0.326 5.378 0 10.625 0.562 15.685 1.629l-0.493-0.087c1.756 0.207 3.357 0.635 4.855 1.26l-0.119-0.044c13.121 3.608 24.39 10.275 33.414 19.206l-0.006-0.006c13.341 13.946 21.553 32.894 21.553 53.76s-8.212 39.814-21.58 53.789l0.027-0.029c-13.637 13.666-32.493 22.121-53.322 22.121-3.018 0-5.995-0.178-8.92-0.523l0.355 0.034c-0.448 0-0.896 0-1.344 0l-113.92-10.496 201.984 202.048c13.341 13.946 21.553 32.894 21.553 53.76s-8.212 39.814-21.58 53.789l0.027-0.029c-13.759 13.757-32.766 22.267-53.76 22.267s-40.001-8.509-53.76-22.267l-201.152-201.152 10.88 119.232c0.314 2.591 0.493 5.59 0.493 8.631 0 41.885-33.955 75.84-75.84 75.84-21.031 0-40.063-8.561-53.801-22.387l-0.004-0.004c-9.359-9.426-16.246-21.318-19.601-34.616l-0.111-0.52-0.512-2.048c-1.138-4.904-1.79-10.535-1.79-16.318 0-2.434 0.116-4.842 0.342-7.217l-0.023 0.303-15.808-295.744c-0.854-4.329-1.343-9.307-1.344-14.399v-0.001c0-0.041 0-0.089 0-0.138 0-41.744 33.84-75.584 75.584-75.584 0.428 0 0.854 0.004 1.28 0.011l-0.064-0.001c0.489-0.044 1.058-0.069 1.632-0.069s1.143 0.025 1.705 0.075l-0.073-0.005z" />
<glyph unicode="&#xe93b;" glyph-name="gear" d="M1020.814 504.889c-3.761 14.596-16.806 25.207-32.33 25.207-0.214 0-0.427-0.002-0.64-0.006h0.032c-0.376-0.005-0.821-0.007-1.266-0.007-62.429 0-113.038 50.609-113.038 113.038 0 33.102 14.228 62.88 36.902 83.553l0.089 0.080c5.696 5.219 9.253 12.692 9.253 20.995 0 6.687-2.307 12.835-6.169 17.691l0.045-0.058c-24.209 30.608-50.837 57.489-80.16 81.167l-0.964 0.753c-4.827 3.897-11.037 6.256-17.798 6.256-8.366 0-15.888-3.612-21.093-9.361l-0.022-0.024c-21.513-22.431-51.73-36.37-85.203-36.37-15.291 0-29.903 2.909-43.312 8.203l0.8-0.278c-41.103 17.763-69.345 57.955-69.345 104.743 0 2.177 0.061 4.341 0.182 6.488l-0.013-0.298c0.031 0.498 0.049 1.080 0.049 1.665 0 14.564-10.946 26.571-25.059 28.245l-0.134 0.013c-17.657 2.162-38.097 3.396-58.826 3.396-19.841 0-39.418-1.13-58.67-3.33l2.353 0.219c-14.34-1.594-25.391-13.646-25.391-28.28 0-0.358 0.007-0.714 0.020-1.069l-0.002 0.051c0.047-1.228 0.075-2.669 0.075-4.117 0-47.121-28.645-87.552-69.472-104.829l-0.746-0.28c-12.309-4.744-26.551-7.491-41.434-7.491-33.501 0-63.75 13.922-85.278 36.296l-0.036 0.038c-5.223 5.735-12.72 9.32-21.055 9.32-6.66 0-12.785-2.289-17.632-6.122l0.060 0.045c-30.969-24.41-58.151-51.285-82.076-80.898l-0.754-0.965c-3.912-4.832-6.28-11.053-6.28-17.827 0-8.35 3.598-15.86 9.328-21.064l0.024-0.021c22.903-20.832 37.222-50.753 37.222-84.019 0-15.793-3.227-30.832-9.059-44.494l0.281 0.741c-19.129-41.184-60.138-69.229-107.698-69.229-1.238 0-2.471 0.019-3.7 0.057l0.18-0.004c-0.564 0.041-1.223 0.064-1.886 0.064-14.445 0-26.318-11.010-27.687-25.095l-0.009-0.114c-2.184-17.775-3.43-38.353-3.43-59.222 0-20.164 1.164-40.056 3.427-59.612l-0.224 2.382c4.062-14.64 17.27-25.207 32.946-25.207 0.218 0 0.435 0.002 0.651 0.006h-0.032c0.36 0.004 0.786 0.007 1.212 0.007 46.83 0 86.965-28.665 103.816-69.405l0.273-0.745c5.274-12.648 8.338-27.343 8.338-42.753 0-33.103-14.137-62.904-36.703-83.696l-0.079-0.072c-5.68-5.218-9.227-12.68-9.227-20.971 0-6.672 2.297-12.807 6.144-17.658l-0.045 0.059c24.19-30.598 50.78-57.477 80.054-81.171l0.956-0.749c4.838-3.928 11.071-6.306 17.86-6.306 8.363 0 15.883 3.609 21.087 9.354l0.022 0.024c21.487 22.438 51.687 36.383 85.143 36.383 15.293 0 29.906-2.914 43.313-8.217l-0.798 0.278c41.168-17.735 69.466-57.96 69.466-104.794 0-2.22-0.064-4.424-0.189-6.613l0.014 0.303c-0.031-0.498-0.049-1.080-0.049-1.665 0-14.564 10.946-26.571 25.059-28.245l0.134-0.013c17.664-2.171 38.112-3.41 58.85-3.41 19.853 0 39.441 1.135 58.702 3.345l-2.352-0.219c14.34 1.594 25.391 13.646 25.391 28.28 0 0.358-0.007 0.714-0.020 1.069l0.002-0.051c-0.047 1.225-0.074 2.663-0.074 4.108 0 47.078 28.593 87.478 69.359 104.781l0.745 0.281c12.333 4.771 26.604 7.536 41.521 7.536 33.5 0 63.744-13.941 85.246-36.338l0.038-0.040c5.223-5.735 12.72-9.32 21.055-9.32 6.66 0 12.785 2.289 17.632 6.122l-0.060-0.045c30.962 24.433 58.143 51.324 82.073 80.951l0.757 0.969c3.912 4.832 6.28 11.053 6.28 17.827 0 8.35-3.598 15.86-9.328 21.064l-0.024 0.021c-22.893 20.831-37.205 50.746-37.205 84.003 0 15.777 3.221 30.802 9.041 44.453l-0.281-0.741c17.922 40.982 58.007 69.152 104.7 69.404h6.347c0.517-0.033 1.12-0.053 1.729-0.053 14.545 0 26.54 10.917 28.239 25.005l0.013 0.136c2.061 17.258 3.237 37.246 3.237 57.508 0 20.79-1.238 41.291-3.644 61.433l0.237-2.433zM512.853 276.196c-94.257 0-170.667 76.41-170.667 170.667s76.41 170.667 170.667 170.667c94.257 0 170.667-76.41 170.667-170.667v0c-0.097-94.24-76.435-170.619-170.651-170.78h-0.016z" />
<glyph unicode="&#xe93c;" glyph-name="globe" horiz-adv-x="1025" d="M983.699 647.412c-52.29 123.599-148.933 219.881-269.491 270.458l-3.308 1.231c-58.633 25.852-126.999 40.901-198.879 40.901s-140.246-15.048-202.118-42.166l3.239 1.266c-123.709-52.053-220.266-148.25-271.549-268.395l-1.25-3.294c-25.501-58.777-40.336-127.234-40.336-199.156s14.835-140.379 41.611-202.479l-1.275 3.323c52.488-123.654 149.042-220.069 269.485-271.125l3.314-1.248c58.635-25.843 127-40.885 198.879-40.885s140.244 15.043 202.119 42.151l-3.241-1.266c123.894 52.030 220.528 148.484 271.558 268.946l1.241 3.298c25.852 58.721 40.899 127.181 40.899 199.156s-15.047 140.435-42.167 202.406l1.268-3.25zM341.533 864.712c-45.684-60.147-79.592-131.86-96.796-209.843l-0.669-3.615h-133.71c50.201 96.068 130.493 170.635 228.176 212.32l2.999 1.138zM62.202 448.555c0 0.088 0 0.193 0 0.297 0 50.407 8.408 98.85 23.898 144.004l-0.93-3.12h146.731c-6.776-42.259-10.647-90.98-10.647-140.605s3.871-98.346 11.328-145.877l-0.681 5.272h-147.884c-13.835 41.69-21.816 89.683-21.816 139.541 0 0.171 0 0.343 0 0.514v-0.027zM110.358 246.88h133.881c17.352-82.421 51.27-154.955 98.276-217.030l-0.982 1.353c-101.394 42.697-181.972 118.261-229.993 213.105l-1.181 2.573zM480.664 3.197c-42.791 15.279-77.758 43.689-100.917 80.309l-0.475 0.805c-31.725 46.474-56.11 100.832-69.952 159.268l-0.66 3.301h171.962zM480.664 308.484h-186.093c-6.77 41.834-10.838 90.315-11.225 139.674l-0.002 0.398c-0.001 0.361-0.001 0.787-0.001 1.214 0 49.467 4.489 97.885 13.083 144.869l-0.744-4.902h184.854v-281.209zM480.664 651.34h-172.004c15.509 61.114 40.178 114.76 72.839 162.506l-1.117-1.73c23.126 37.362 57.788 65.685 98.949 80.275l1.334 0.412v-241.549zM914.24 651.34h-133.881c-17.826 81.558-51.676 153.244-98.281 214.73l0.986-1.358c100.684-42.82 180.977-117.387 229.97-210.931l1.205-2.527zM543.933 892.761c42.494-15.002 77.157-43.325 99.812-79.872l0.47-0.815c31.553-46.028 56.223-99.69 70.964-157.326l0.758-3.493h-172.004zM543.933 589.651h184.854c7.849-42.087 12.339-90.51 12.339-139.982 0-0.421 0-0.843-0.001-1.264v0.065c-0.389-49.755-4.458-98.237-11.946-145.581l0.718 5.51h-185.964zM543.933 3.111v243.769h172.004c-15.223-61.715-39.775-115.962-72.437-164.276l1.142 1.792c-22.952-37.807-57.858-66.395-99.392-80.802l-1.318-0.398zM683.065 31.202c46.091 60.712 80.067 133.245 96.835 212.141l0.63 3.537h133.881c-49.243-97.442-129.883-173.014-228.385-214.569l-2.961-1.109zM940.751 308.697h-148.054c6.765 41.963 10.63 90.338 10.63 139.615 0 0.161 0 0.321 0 0.482v-0.026c0 0.261 0 0.571 0 0.88 0 49.517-3.865 98.132-11.31 145.558l0.68-5.258h146.774c14.56-42.034 22.968-90.477 22.968-140.884 0-0.105 0-0.209 0-0.314v0.016c0-0.181 0-0.396 0-0.61 0-49.907-7.997-97.946-22.778-142.905l0.92 3.231z" />
<glyph unicode="&#xe93d;" glyph-name="grid-columns" horiz-adv-x="1138" d="M0 487.367h334.62v472.633h-334.62zM0-64h334.62v472.633h-334.62zM401.579-64h334.62v472.633h-334.62zM803.157-64h334.62v472.633h-334.62zM401.579 487.367h334.62v472.633h-334.62zM803.157 960v-472.633h334.62v472.633z" />
<glyph unicode="&#xe93e;" glyph-name="grid-rectangles" d="M992.139 383.993h-384.043c-17.659 0-31.975-14.316-31.975-31.975v0-384.043c0-17.659 14.316-31.975 31.975-31.975v0h384.043c17.659 0 31.975 14.316 31.975 31.975v0 384.043c0 17.659-14.316 31.975-31.975 31.975v0zM992.139 960.114h-384.043c-17.659 0-31.975-14.316-31.975-31.975v0-384.043c0-17.659 14.316-31.975 31.975-31.975h384.043c0 0 0 0 0 0 17.639 0 31.943 14.283 31.975 31.915v384.046c0 0.017 0 0.037 0 0.057 0 17.659-14.316 31.975-31.975 31.975 0 0 0 0 0 0v0zM416.018 960.114h-384.043c-17.666-0.032-31.975-14.361-31.975-32.032 0 0 0 0 0 0v0-384.043c0-17.659 14.316-31.975 31.975-31.975v0h384.043c17.659 0 31.975 14.316 31.975 31.975v0 384.043c0 0 0 0 0 0 0 17.671-14.309 32-31.972 32.032h-0.003zM416.018 384.050h-384.043c0 0 0 0 0 0-17.659 0-31.975-14.316-31.975-31.975 0-0.020 0-0.040 0-0.060v0.003-384.043c0-17.659 14.316-31.975 31.975-31.975v0h384.043c17.659 0 31.975 14.316 31.975 31.975v384.043c0 17.659-14.316 31.975-31.975 31.975v0z" />
<glyph unicode="&#xe93f;" glyph-name="grid-rows" horiz-adv-x="1138" d="M0-64h1137.778v170.667h-1137.778zM1077.874 675.556h-1017.97c-0.397 0.010-0.864 0.015-1.333 0.015-31.767 0-57.629-25.279-58.569-56.817l-0.002-0.087v-341.333c0.942-31.625 26.805-56.904 58.571-56.904 0.469 0 0.936 0.006 1.402 0.016l-0.069-0.001h1017.97c0.397-0.010 0.864-0.015 1.333-0.015 31.767 0 57.629 25.279 58.569 56.817l0.002 0.087v341.333c-0.942 31.625-26.805 56.904-58.571 56.904-0.469 0-0.936-0.006-1.402-0.016l0.069 0.001zM0 960v-170.667h1137.778v170.667z" />
<glyph unicode="&#xe940;" glyph-name="inbox" d="M910.234 960h-797.030c-0.002 0-0.004 0-0.006 0-62.209 0-112.64-50.431-112.64-112.64 0-0.396 0.002-0.792 0.006-1.187v0.060l-0.563-796.467c-0.001-0.152-0.001-0.332-0.001-0.512 0-62.531 50.677-113.226 113.202-113.254h797.033c62.75 0.203 113.563 51.017 113.766 113.747v796.486c0 62.831-50.935 113.766-113.766 113.766v0zM910.234 277.35h-227.584c0-94.261-76.414-170.675-170.675-170.675s-170.675 76.414-170.675 170.675v0h-228.096v568.883h797.030z" />
<glyph unicode="&#xe941;" glyph-name="layers" horiz-adv-x="1193" d="M1185.858 182.755l-225.491 97.708-324.611-129.872c-11.591-4.39-24.993-6.932-38.988-6.932s-27.396 2.542-39.767 7.189l0.78-0.257-324.671 129.852-225.471-97.688c-10.264-4.416-10.165-11.398 0.219-15.575l570.093-228.037c5.608-1.975 12.075-3.116 18.808-3.116s13.199 1.141 19.217 3.24l-0.409-0.124 570.093 228.037c10.364 4.157 10.463 11.159 0.199 15.575zM1185.858 446.080l-225.531 97.727-324.571-129.813c-11.593-4.424-25.001-6.986-39.007-6.986s-27.414 2.562-39.78 7.243l0.773-0.257-324.611 129.813-225.491-97.727c-10.264-4.416-10.165-11.378 0.219-15.575l570.093-227.998c5.609-1.964 12.076-3.099 18.808-3.099s13.198 1.135 19.219 3.223l-0.412-0.124 570.093 228.017c10.364 4.157 10.463 11.119 0.199 15.555zM7.857 693.87l570.093-228.037c5.608-1.975 12.075-3.116 18.808-3.116s13.199 1.141 19.217 3.24l-0.409-0.124 570.093 228.017c10.383 4.157 10.443 11.119 0.219 15.575l-570.571 247.253c-5.522 2.107-11.908 3.328-18.579 3.328s-13.057-1.22-18.947-3.45l0.368 0.122-570.511-247.253c-10.264-4.436-10.165-11.418 0.219-15.555z" />
<glyph unicode="&#xe942;" glyph-name="letter" horiz-adv-x="1096" d="M1095.167 573.090c-0.002 2.003-0.368 3.92-1.035 5.689l0.037-0.111c-1.817 6.483-5.728 11.872-10.943 15.528l-0.090 0.060-156.898 109.064v116.906c0 15.509-12.573 28.082-28.082 28.082v0h-180.498l-153.585 106.774c-4.463 3.13-10.008 5.002-15.989 5.002s-11.526-1.872-16.080-5.062l0.090 0.060-154.584-106.774h-179.67c-15.496 0-28.057-12.562-28.057-28.057v0-115.64l-157.604-108.966c-7.287-5.040-12.036-13.3-12.177-22.678v-0.022c0-0.17 0-0.317 0-0.487l0.828-608.448c0.014-15.485 12.57-28.033 28.057-28.033v0l1039.076 1.437c15.488 0.028 28.033 12.59 28.033 28.082 0 0.009 0 0.017 0 0.026v-0.001zM926.237 634.928l89.677-62.326-89.677-62.35zM547.997 897.772l71.337-49.466h-143.015zM225.921 792.069h644.177v-320.932l-216.276-150.37-88.581 68.658c-4.638 3.521-10.508 5.641-16.874 5.641-6.52 0-12.521-2.224-17.285-5.955l0.061 0.046-88.751-68.877-216.471 149.615zM169.782 636.414v-127.671l-92.356 63.787zM56.212 518.923l339.661-234.738-338.979-262.917zM111.036-7.763l437.375 339.247 435.816-338.053zM700.292 284.721l338.808 235.541 0.682-498.897zM738.018 679.791h-379.945c-14.768-0.898-26.405-13.094-26.405-28.009s11.637-27.111 26.326-28.005l0.079-0.004h379.945c0.494-0.031 1.071-0.049 1.653-0.049 15.496 0 28.057 12.562 28.057 28.057s-12.562 28.057-28.057 28.057c-0.581 0-1.159-0.018-1.731-0.053l0.079 0.004zM738.018 533.731h-379.945c-14.768-0.898-26.405-13.094-26.405-28.009s11.637-27.111 26.326-28.005l0.079-0.004h379.945c0.494-0.031 1.071-0.049 1.653-0.049 15.496 0 28.057 12.562 28.057 28.057s-12.562 28.057-28.057 28.057c-0.581 0-1.159-0.018-1.731-0.053l0.079 0.004z" />
<glyph unicode="&#xe943;" glyph-name="lightbulb" horiz-adv-x="717" d="M204.8-12.8c0-28.277 22.923-51.2 51.2-51.2v0h204.8c28.277 0 51.2 22.923 51.2 51.2v0 51.2h-307.2zM358.4 960c-197.795-0.191-358.065-160.579-358.065-358.4 0-121.149 60.11-228.259 152.133-293.131l1.132-0.757v-115.712c0-28.277 22.923-51.2 51.2-51.2v0h307.2c28.277 0 51.2 22.923 51.2 51.2v0 115.712c93.155 65.629 153.265 172.739 153.265 293.888 0 197.821-160.27 358.209-358.047 358.4h-0.018zM504.32 391.68l-43.52-30.72v-117.76h-204.8v117.76l-43.52 30.72c-66.887 46.841-110.080 123.547-110.080 210.341 0 141.385 114.615 256 256 256s256-114.615 256-256c0-86.794-43.193-163.5-109.257-209.795l-0.823-0.546z" />
<glyph unicode="&#xe944;" glyph-name="lock" horiz-adv-x="780" d="M682.667 618.667h-48.768v97.536c0 134.657-109.161 243.819-243.819 243.819s-243.819-109.161-243.819-243.819v0-97.536h-48.725c-53.809-0.145-97.391-43.727-97.536-97.522v-487.609c0.145-53.809 43.727-97.391 97.522-97.536h585.145c53.809 0.145 97.391 43.727 97.536 97.522v487.609c-0.145 53.809-43.727 97.391-97.522 97.536h-0.014zM390.101 179.797c-53.868 0-97.536 43.668-97.536 97.536s43.668 97.536 97.536 97.536c53.868 0 97.536-43.668 97.536-97.536v0c-0.145-53.809-43.727-97.391-97.522-97.536h-0.014zM541.269 618.667h-302.336v97.536c0 83.488 67.68 151.168 151.168 151.168s151.168-67.68 151.168-151.168v0z" />
<glyph unicode="&#xe945;" glyph-name="magnifier" d="M398.464 163.072c0.354-0.001 0.772-0.002 1.191-0.002 96.797 0 185.384 35.151 253.692 93.385l-0.547-0.455 309.248-309.248c6.559-6.537 15.607-10.578 25.6-10.578s19.041 4.041 25.601 10.579l-0.001-0.001c6.537 6.559 10.578 15.607 10.578 25.6s-4.041 19.041-10.579 25.601l-309.247 309.247c56.934 68.329 91.495 157.040 91.495 253.824 0 219.712-178.112 397.824-397.824 397.824s-397.824-178.112-397.824-397.824c0-219.712 178.112-397.824 397.824-397.824 0.219 0 0.437 0 0.656 0.001h-0.034zM398.464 887.552c0.025 0 0.055 0 0.085 0 180.054 0 326.016-145.962 326.016-326.016s-145.962-326.016-326.016-326.016c-180.054 0-326.016 145.962-326.016 326.016v0c0.243 179.909 146.022 325.688 325.908 325.931h0.023z" />
<glyph unicode="&#xe946;" glyph-name="modules" horiz-adv-x="1119" d="M0 271.591h328.991v688.409h-328.991zM394.823-64h328.991v1024h-328.991zM789.646 960v-464.682h328.991v464.682z" />
<glyph unicode="&#xe947;" glyph-name="monitor" horiz-adv-x="901" d="M819.257 960h-737.337c-45.217-0.065-81.855-36.703-81.92-81.914v-573.446c0.032-45.23 36.69-81.888 81.917-81.92h737.283c45.217 0.065 81.855 36.703 81.92 81.914v573.446c-0.065 45.197-36.67 81.823-81.854 81.92h-0.009zM81.92 304.64v573.44h737.28v-573.44zM593.92 140.8h-286.72v-122.88h-139.89v-81.92h573.44v81.92h-146.83z" />
<glyph unicode="&#xe948;" glyph-name="monitor-cursor" horiz-adv-x="1210" d="M1143.423 960h-1076.476c-36.955-0.046-66.901-29.992-66.947-66.942v-706.026c0.046-36.955 29.992-66.901 66.942-66.947h406.151v-4.142c-0.092-69.499-56.407-125.814-125.897-125.905h-0.009c-13.717-1.344-24.348-12.819-24.348-26.776s10.631-25.432 24.237-26.767l0.111-0.009h1.963c1.614-0.352 3.471-0.557 5.374-0.565h501.288c1.909 0.008 3.765 0.213 5.556 0.597l-0.177-0.032h1.963c13.717 1.344 24.348 12.819 24.348 26.776s-10.631 25.432-24.237 26.767l-0.111 0.009c-69.464 0.138-125.733 56.435-125.825 125.897v4.097h406.146c36.951 0.077 66.878 30.041 66.893 66.999v706.023c-0.046 36.955-29.992 66.901-66.942 66.947h-0.004zM474.384-10.475c32.276 32.357 52.234 77.015 52.234 126.334 0 0.029 0 0.058 0 0.087v-0.004 4.115h157.16v-4.115c0-0.024 0-0.054 0-0.083 0-49.319 19.958-93.977 52.238-126.337l-0.004 0.004zM1156.818 187.004c0-7.427-6.021-13.449-13.449-13.449v0h-427.368c-1.641 0.356-3.527 0.56-5.46 0.56s-3.819-0.204-5.636-0.592l0.176 0.031h-199.792c-1.641 0.356-3.527 0.56-5.46 0.56s-3.819-0.204-5.636-0.592l0.176 0.031h-427.422c-7.427 0-13.449 6.021-13.449 13.449v0 153.018h1103.32zM1156.818 393.547h-1103.266v499.506c0 7.427 6.021 13.449 13.449 13.449v0h1076.422c7.427 0 13.449-6.021 13.449-13.449v0-499.479zM732.543 658.134c-0.58 10.617-7.235 19.546-16.525 23.415l-0.178 0.066-220.556 89.11-1.506 0.35-1.157 0.188-1.452 0.188h-5.245l-1.157-0.161-1.426-0.215-1.21-0.296-1.318-0.35-2.286-0.807h-0.188l-1.372-0.646-1.049-0.511-1.076-0.646-1.183-0.726-0.619-0.457c-1.27-0.898-2.386-1.834-3.419-2.854l0.003 0.003c-0.377-0.377-0.753-0.807-1.103-1.21l-0.619-0.699c-0.35-0.403-0.646-0.861-0.968-1.291l-0.592-0.807c-0.242-0.377-0.457-0.753-0.672-1.13s-0.457-0.753-0.672-1.13-0.323-0.699-0.511-1.049-0.457-0.915-0.646-1.372v-0.188c0-0.296-0.215-0.619-0.323-0.915s-0.35-0.915-0.484-1.372-0.215-0.834-0.323-1.264-0.215-0.861-0.296-1.291-0.161-0.888-0.215-1.345 0-0.834-0.161-1.264 0-0.888 0-1.345 0-0.861 0-1.291 0-0.861 0-1.291 0-0.888 0-1.345 0-0.834 0.161-1.264 0-0.888 0.215-1.345 0.188-0.861 0.296-1.291 0.215-0.834 0.323-1.264 0.323-0.915 0.484-1.372 0.188-0.619 0.323-0.915l88.007-217.221c3.943-9.457 12.87-16.101 23.413-16.673l0.068-0.003h1.345c10.221 0.029 19.097 5.754 23.626 14.166l0.070 0.143 27.65 52.476 43.17-43.17c4.969-5.97 12.402-9.742 20.716-9.742 14.855 0 26.897 12.042 26.897 26.897 0 8.314-3.772 15.747-9.699 20.681l-0.044 0.035-43.17 43.17 52.476 27.65c8.519 4.627 14.205 13.507 14.205 23.714 0 0.448-0.011 0.893-0.033 1.336l0.002-0.062zM608.816 635.97h-0.242l-0.968-0.592c-0.403-0.242-0.834-0.457-1.21-0.726v0c-0.726-0.484-1.452-1.022-2.152-1.587l-0.834-0.753c-0.377-0.323-0.753-0.646-1.103-0.995-1.235-1.235-2.351-2.59-3.328-4.046l-0.061-0.097c-0.269-0.377-0.484-0.78-0.726-1.183s-0.403-0.672-0.592-1.022l-0.134-0.269-17.645-33.46-42.605 105.168 105.168-42.605zM644.186 257.878c0-19.965-16.185-36.15-36.15-36.15s-36.15 16.185-36.15 36.15c0 19.965 16.185 36.15 36.15 36.15s36.15-16.185 36.15-36.15z" />
<glyph unicode="&#xe949;" glyph-name="mountains" horiz-adv-x="1877" d="M1109.333 960l-320-426.667 243.2-324.267-136.533-102.4c-144.213 192-384 512-384 512l-512-682.667h1877.333z" />
<glyph unicode="&#xe94a;" glyph-name="offer" horiz-adv-x="1144" d="M1074.65 785.686v145.57c0 15.874-12.869 28.743-28.743 28.743v0h-1017.164c-15.874 0-28.743-12.869-28.743-28.743v0-819.368c0-15.874 12.869-28.743 28.743-28.743v0h114.921v-66.686c0.043-44.419 36.041-80.417 80.456-80.46h839.042c44.419 0.043 80.417 36.041 80.46 80.456v689.609c-0.053 40.362-29.779 73.764-68.531 79.567l-0.442 0.054zM57.461 140.607v761.932h959.728v-115.989h-275.842c-44.419-0.043-80.417-36.041-80.46-80.456v-0.004c-0.086-12.597-10.275-22.787-22.864-22.872h-413.898c-44.419-0.043-80.417-36.041-80.46-80.456v-462.028h-86.204zM1086.137 16.435c-0.086-12.597-10.275-22.787-22.864-22.872h-839.148c-12.597 0.086-22.787 10.275-22.872 22.864v586.204c0.086 12.597 10.275 22.787 22.864 22.872h413.771c44.419 0.043 80.417 36.041 80.46 80.456v0.004c0.086 12.597 10.275 22.787 22.864 22.872h321.951c12.597-0.086 22.787-10.275 22.872-22.864v-0.008zM568.94 539.426h-264.304c-15.502-0.476-27.888-13.157-27.888-28.73s12.386-28.255 27.845-28.729l0.044-0.001h264.304c0.255-0.008 0.554-0.013 0.855-0.013 15.874 0 28.743 12.869 28.743 28.743s-12.869 28.743-28.743 28.743c-0.301 0-0.6-0.005-0.898-0.014l0.044 0.001zM568.94 441.71h-264.304c-0.255 0.008-0.554 0.013-0.855 0.013-15.874 0-28.743-12.869-28.743-28.743s12.869-28.743 28.743-28.743c0.301 0 0.6 0.005 0.898 0.014l-0.044-0.001h264.304c0.255-0.008 0.554-0.013 0.855-0.013 15.874 0 28.743 12.869 28.743 28.743s-12.869 28.743-28.743 28.743c-0.301 0-0.6-0.005-0.898-0.014l0.044 0.001z" />
<glyph unicode="&#xe94b;" glyph-name="palm" horiz-adv-x="939" d="M938.667 725.333v-618.667c-0.29-94.14-76.527-170.377-170.639-170.667h-311.495c-0.041 0-0.090 0-0.139 0-47.504 0-90.475 19.408-121.416 50.728l-0.017 0.017-334.962 340.537s53.76 52.452 55.467 53.305c8.819 7.672 20.42 12.348 33.114 12.348 0.199 0 0.397-0.001 0.595-0.003h-0.030c9.421-0.035 18.243-2.564 25.851-6.961l-0.251 0.134c1.707-0.455 183.922-104.96 183.922-104.96v508.188c0 35.346 28.654 64 64 64s64-28.654 64-64v0-298.667h42.667v405.333c0 35.346 28.654 64 64 64s64-28.654 64-64v0-405.333h42.667v362.667c0 35.346 28.654 64 64 64s64-28.654 64-64v0-362.667h42.667v234.667c0 35.346 28.654 64 64 64s64-28.654 64-64v0z" />
<glyph unicode="&#xe94e;" glyph-name="people" horiz-adv-x="1463" d="M997.376 521.143c111.105 5.63 199.058 97.085 199.058 209.082 0 3.639-0.093 7.257-0.276 10.85l0.021-0.504c0.163 3.090 0.256 6.707 0.256 10.346 0 111.998-87.953 203.453-198.557 209.062l-0.501 0.020c-111.448-5.607-199.687-97.334-199.687-209.67 0-3.432 0.082-6.845 0.245-10.237l-0.018 0.479c-0.145-2.913-0.227-6.326-0.227-9.758 0-112.337 88.24-204.064 199.189-209.65l0.499-0.020zM465.481 521.143c111.105 5.63 199.058 97.085 199.058 209.082 0 3.639-0.093 7.257-0.276 10.85l0.021-0.504c0.163 3.090 0.256 6.707 0.256 10.346 0 111.998-87.953 203.453-198.557 209.062l-0.501 0.020c-111.48-5.568-199.76-97.312-199.76-209.674 0-3.431 0.082-6.842 0.245-10.233l-0.018 0.478c-0.144-2.912-0.227-6.324-0.227-9.755 0-112.362 88.28-204.105 199.264-209.654l0.496-0.020zM465.481 374.857c-154.99 0-465.481-85.577-465.481-256v-182.857h930.889v182.857c0 170.423-310.491 256-465.408 256zM997.449 374.857c-19.31 0-41.253-1.463-64.512-3.657 78.734-57.355 129.673-148.764 130.997-252.134l0.002-0.209v-182.857h398.921v182.857c0 170.423-310.491 256-465.481 256z" />
<glyph unicode="&#xe94f;" glyph-name="pie-chart" horiz-adv-x="1044" d="M522.062 944.307c1.308 0.012 2.853 0.019 4.4 0.019 275.138 0 498.565-221.402 501.839-495.764l0.003-0.309c-3.207-274.761-226.689-496.262-501.906-496.262-1.524 0-3.047 0.007-4.568 0.020l0.233-0.002c-1.344-0.013-2.933-0.020-4.523-0.020-275.179 0-498.619 221.524-501.716 495.97l-0.003 0.293c3.205 274.656 226.604 496.074 501.717 496.074 1.591 0 3.18-0.007 4.768-0.022l-0.243 0.002zM577.558 478.628h387.465c-10.355 134.162-80.344 250.099-183.21 322.443l-1.379 0.919zM965.149 417.879h-443.088c-0.095-0.001-0.206-0.002-0.318-0.002-16.839 0-30.511 13.562-30.689 30.359v434.119c-229.573-14.246-410.694-202.685-413.217-433.98l-0.002-0.248c2.707-241.103 198.789-435.512 440.277-435.512 1.389 0 2.776 0.006 4.161 0.019l-0.212-0.002c0.966-0.008 2.109-0.012 3.253-0.012 230.948 0 420.45 177.451 439.598 403.445l0.111 1.624zM553.006 555.323l174.843 278.433c-50.771 26.68-110.306 44.143-173.442 48.521l-1.401 0.078z" />
<glyph unicode="&#xe950;" glyph-name="play-circle" d="M512 960c-282.77 0-512-229.23-512-512s229.23-512 512-512c282.77 0 512 229.23 512 512v0c0 282.77-229.23 512-512 512v0zM409.6 217.6v460.8l307.2-230.4z" />
<glyph unicode="&#xe952;" glyph-name="premium" horiz-adv-x="1317" d="M242.022-63.934h833.017l36.023 131.713c-29.699 9.287-52.721 31.962-62.304 60.774l-0.193 0.67h-780.002c-9.767-29.488-32.793-52.167-61.826-61.263l-0.672-0.181 36.023-131.713zM1161.047 250.266l108.531 397.048c28.452 13.773 47.727 42.424 47.727 75.577 0 46.228-37.475 83.703-83.703 83.703s-83.703-37.475-83.703-83.703c0-24.554 10.572-46.638 27.413-61.95l0.068-0.061c-21.987-109.116-117.078-190.136-231.091-190.136-130.064 0-235.502 105.438-235.502 235.502 0 21.332 2.836 42.002 8.153 61.653l-0.38-1.649c28.011 19.337 46.132 51.263 46.132 87.421 0 58.485-47.412 105.897-105.897 105.897s-105.897-47.412-105.897-105.897c0-36.158 18.122-68.084 45.779-87.19l0.354-0.231c4.936-18.002 7.773-38.672 7.773-60.004 0-130.064-105.438-235.502-235.502-235.502-114.014 0-209.104 81.020-230.837 188.627l-0.254 1.509c16.909 15.372 27.481 37.457 27.481 62.011 0 46.228-37.475 83.703-83.703 83.703s-83.703-37.475-83.703-83.703c0-33.153 19.274-61.804 47.228-75.359l0.498-0.218 108.070-397.048c6.704 1.693 14.401 2.665 22.324 2.665 33.877 0 63.605-17.763 80.378-44.484l0.231-0.395h799.167c16.947 27.094 46.622 44.848 80.444 44.848 0.035 0 0.069 0 0.104 0h-0.005c7.925-0.008 15.622-0.967 22.988-2.771l-0.663 0.137z" />
<glyph unicode="&#xe953;" glyph-name="print" horiz-adv-x="1124" d="M1096.677 475.96h-159.49v269.006c0 0.031 0 0.067 0 0.104 0 7.464-3.015 14.224-7.893 19.128l-187.886 187.861c-4.903 4.877-11.663 7.892-19.127 7.892-0.037 0-0.073 0-0.11 0h-508.31c-15.021 0-27.198-12.177-27.198-27.198v0-456.793h-159.465c-15.021 0-27.198-12.177-27.198-27.198v0-383.166c0.156-71.511 58.085-129.439 129.58-129.595h864.699c71.511 0.156 129.439 58.085 129.595 129.58v383.181c0 15.021-12.177 27.198-27.198 27.198v0zM749.25 867.168l94.905-94.905h-94.905zM241.034 905.604h453.896v-160.664c0-15.021 12.177-27.198 27.198-27.198v0h160.689v-241.808h-641.783zM1069.479 421.564v-38.062h-1015.084v38.062zM994.28-9.629h-864.684c-41.528 0.043-75.182 33.696-75.225 75.221v263.515h1015.109v-263.511c-0.043-41.52-33.682-75.168-75.194-75.225h-0.005zM959.939 204.232h-796.003c-15.021 0-27.198-12.177-27.198-27.198v0-98.052c0-15.021 12.177-27.198 27.198-27.198v0h796.003c15.021 0 27.198 12.177 27.198 27.198v0 98.102c-0.028 14.999-12.194 27.148-27.198 27.148 0 0 0 0 0 0v0zM932.741 106.13h-741.608v43.731h741.633zM157.717 280.156c0 0.001 0 0.001 0 0.002 0 15.021-12.177 27.198-27.198 27.198s-27.198-12.177-27.198-27.198c0-15.021 12.177-27.198 27.198-27.198 7.51 0 14.309 3.044 19.231 7.965v0c4.915 4.926 7.958 11.722 7.967 19.229v0.002z" />
<glyph unicode="&#xe954;" glyph-name="pulse" horiz-adv-x="1260" d="M78.76 250.975h196.899c0.009 0 0.019 0 0.029 0 30.634 0 57.184 17.49 70.207 43.029l0.207 0.446 62.441 124.062 105.79-422.529c8.805-34.597 39.681-59.777 76.438-59.777 36.116 0 66.554 24.309 75.845 57.458l0.133 0.554 162.245 593.469 79.768-279.376c9.688-33.218 39.861-57.078 75.608-57.085h197.026c43.498 0 78.76 35.262 78.76 78.76s-35.262 78.76-78.76 78.76v0h-137.357l-141.263 494.043c-9.728 33.28-39.969 57.178-75.792 57.178-36.168 0-66.647-24.36-75.924-57.568l-0.132-0.554-156.763-575.89-84.556 337.91c-8.941 34.404-39.723 59.395-76.342 59.395-30.675 0-57.255-17.537-70.259-43.132l-0.206-0.448-135.97-271.185h-148.068c-43.498 0-78.76-35.262-78.76-78.76s35.262-78.76 78.76-78.76v0z" />
<glyph unicode="&#xe955;" glyph-name="pyramid" horiz-adv-x="1152" d="M1152.050-64l-576.025 1024.058-576.025-1024.058zM935.695 63.993h-720.032l360.361 640.022z" />
<glyph unicode="&#xe956;" glyph-name="rankings" horiz-adv-x="1251" d="M389.64 34.898h81.69v884.282c0.057 22.521 18.299 40.763 40.815 40.82h226.265c22.521-0.057 40.763-18.299 40.82-40.815v-884.287h81.69v401.896c0.085 22.51 18.31 40.735 40.812 40.82h226.319c22.531-0.057 40.785-18.292 40.87-40.812v-401.854h81.69v-98.898h-1250.611v98.848h81.74v580.283c0.057 22.531 18.292 40.785 40.812 40.87h226.268c22.527-0.085 40.763-18.338 40.82-40.865v-0.005z" />
<glyph unicode="&#xe957;" glyph-name="record-video" horiz-adv-x="1536" d="M1194.731 575.99v298.683c-0.131 47.099-38.299 85.24-85.395 85.327h-1024.008c-47.072-0.131-85.196-38.255-85.327-85.314v-853.359c0.131-47.072 38.255-85.196 85.314-85.327h1024.013c47.072 0.131 85.196 38.255 85.327 85.314v298.696l341.385-341.385v938.673z" />
<glyph unicode="&#xe958;" glyph-name="record-voice" horiz-adv-x="755" d="M377.242 313.242c0.031 0 0.067 0 0.104 0 88.931 0 161.024 72.093 161.024 161.024 0 0.234 0 0.468-0.001 0.702v-0.036l0.563 323.379c0 89.299-72.391 161.69-161.69 161.69s-161.69-72.391-161.69-161.69v-323.379c0-0.061 0-0.133 0-0.205 0-89.186 72.299-161.485 161.485-161.485 0.072 0 0.144 0 0.216 0h-0.011zM662.886 474.931c-2.67-152.393-126.835-274.907-279.614-274.907-2.121 0-4.236 0.024-6.345 0.071l0.314-0.006c-1.795-0.041-3.91-0.065-6.031-0.065-152.779 0-276.944 122.514-279.611 274.657l-0.003 0.25h-91.597c5.123-184.871 142.943-336.053 321.353-361.947l2.027-0.241v-176.742h107.776v176.794c180.53 25.954 318.453 177.242 323.369 361.689l0.011 0.5z" />
<glyph unicode="&#xe959;" glyph-name="refresh" d="M1011.199 904.701c-7.615 7.821-18.246 12.672-30.011 12.672s-22.395-4.851-30.002-12.663l-0.009-0.009-86.419-86.021c-45.902 43.459-100.097 78.719-159.886 103.096l-3.451 1.245c-56.015 23.454-121.104 37.101-189.374 37.15h-0.020c-2.489 0.045-5.426 0.071-8.368 0.071-118.674 0-227.542-41.988-312.558-111.918l0.852 0.68c-88.799-72.339-152.818-172.064-179.265-286.188l-0.684-3.507v-4.665c0.158-11.719 9.616-21.176 21.32-21.334h132.687c0.231-0.010 0.502-0.015 0.775-0.015 9.41 0 17.304 6.49 19.45 15.239l0.028 0.137c12.435 31.806 24.307 57.488 37.445 82.398l-2.115-4.399c60.767 98.305 167.955 162.825 290.213 162.825 0.078 0 0.156 0 0.233 0h-0.012c1.252 0.017 2.73 0.027 4.21 0.027 88.644 0 169.157-34.816 228.61-91.52l-0.131 0.124-91.938-92.108c-7.544-7.691-12.201-18.237-12.201-29.872 0-23.374 18.795-42.359 42.097-42.665h298.712c23.437 0.316 42.353 19.232 42.669 42.639v298.713c0 0.020 0 0.044 0 0.068 0 11.733-4.933 22.314-12.838 29.782l-0.020 0.018zM986.053 362.69h-128.007c-0.16 0.005-0.348 0.007-0.537 0.007-9.396 0-17.277-6.49-19.404-15.231l-0.028-0.137c-12.436-31.808-24.308-57.49-37.446-82.4l2.116 4.401c-60.786-98.209-167.921-162.655-290.109-162.655-0.215 0-0.429 0-0.643 0.001h0.034c-0.162 0-0.354 0-0.545 0-44.716 0-87.371 8.82-126.322 24.815l2.217-0.806c-41.52 16.862-77.124 39.921-107.543 68.444l0.187-0.174 91.369 91.312c7.478 7.678 12.089 18.179 12.089 29.758 0 23.375-18.797 42.361-42.1 42.665h-298.712c-0.102 0.001-0.222 0.001-0.343 0.001-11.651 0-22.166-4.864-29.624-12.673l-0.015-0.016c-7.824-7.483-12.688-18.005-12.688-29.664 0-0.112 0-0.224 0.001-0.336v0.017-298.683c-0.001-0.095-0.001-0.207-0.001-0.319 0-11.658 4.864-22.181 12.673-29.649l0.015-0.015c7.492-7.825 18.022-12.688 29.688-12.688 0.103 0 0.207 0 0.31 0.001h-0.016c0.087-0.001 0.191-0.001 0.294-0.001 11.666 0 22.196 4.863 29.673 12.673l0.014 0.015 86.021 86.021c45.546-43.652 99.435-79.029 158.976-103.449l3.394-1.232c55.538-23.177 120.064-36.639 187.734-36.639 0.223 0 0.447 0 0.67 0h-0.034c2.492-0.046 5.432-0.072 8.378-0.072 118.166 0 226.537 41.934 311.045 111.732l-0.827-0.663c88.423 72.403 152.046 172.152 178.032 286.219l0.666 3.475c0.447 1.172 0.706 2.528 0.706 3.944 0 0.254-0.008 0.505-0.025 0.755l0.002-0.034c-0.158 11.719-9.616 21.176-21.32 21.334h-0.015z" />
<glyph unicode="&#xe95a;" glyph-name="reminder" horiz-adv-x="1098" d="M1035.249 883.209h-192.307v51.609c0 13.881-11.253 25.133-25.133 25.133s-25.133-11.253-25.133-25.133v0-51.658h-218.489v51.658c0 13.881-11.253 25.133-25.133 25.133s-25.133-11.253-25.133-25.133v0-51.658h-218.465v51.658c0 13.881-11.253 25.133-25.133 25.133s-25.133-11.253-25.133-25.133v0-51.658h-192.331c-34.668-0.042-62.764-28.12-62.833-62.778v-821.55c0.042-34.685 28.148-62.792 62.829-62.833h972.395c34.685 0.042 62.792 28.148 62.833 62.829v821.547c-0.042 34.685-28.148 62.792-62.829 62.833h-0.004zM1047.816-1.167c-0.014-6.935-5.632-12.553-12.565-12.567h-972.392c-6.935 0.014-12.553 5.632-12.567 12.565v574.48h997.525v-574.479zM1047.816 623.506h-997.525v196.87c0.014 6.935 5.632 12.553 12.565 12.567h192.332v-74.351c-8.747-7.28-14.275-18.171-14.275-30.353 0-21.764 17.644-39.408 39.408-39.408s39.408 17.644 39.408 39.408c0 12.182-5.527 23.073-14.211 30.301l-0.064 0.052v74.351h218.465v-74.351c-8.747-7.28-14.275-18.171-14.275-30.353 0-21.764 17.644-39.408 39.408-39.408s39.408 17.644 39.408 39.408c0 12.182-5.527 23.073-14.211 30.301l-0.064 0.052v74.351h218.465v-74.351c-8.747-7.28-14.275-18.171-14.275-30.353 0-21.764 17.644-39.408 39.408-39.408s39.408 17.644 39.408 39.408c0 12.182-5.527 23.073-14.211 30.301l-0.064 0.052v74.351h192.307c6.935-0.014 12.553-5.632 12.567-12.565v-196.797zM886.474 473.634h-674.866c-13.881 0-25.133-11.253-25.133-25.133v0-337.348c0-13.881 11.253-25.133 25.133-25.133v0h674.866c13.881 0 25.133 11.253 25.133 25.133v0 337.348c0 13.881-11.253 25.133-25.133 25.133v0zM355.185 136.188h-118.517v118.444h118.444zM355.185 304.899h-118.517v118.444h118.444zM523.896 136.188h-118.444v118.444h118.444zM523.896 304.899h-118.444v118.444h118.444zM692.606 136.188h-118.444v118.444h118.444zM692.606 304.899h-118.444v118.444h118.444zM861.317 136.188h-118.444v118.444h118.468zM861.317 304.899h-118.444v118.444h118.468z" />
<glyph unicode="&#xe95b;" glyph-name="remove" d="M447.971 448.013l-191.995 191.995c-17.673 17.673-17.673 46.326 0 63.998s46.326 17.673 63.998 0v0l191.995-191.995 191.995 191.995c17.673 17.673 46.326 17.673 63.998 0s17.673-46.326 0-63.998v0l-191.995-191.995 191.995-191.995c17.673-17.673 17.673-46.326 0-63.998s-46.326-17.673-63.998 0v0l-191.995 191.995-191.995-191.995c-17.673-17.673-46.326-17.673-63.998 0s-17.673 46.326 0 63.998v0z" />
<glyph unicode="&#xe95c;" glyph-name="reply" horiz-adv-x="1229" d="M477.867 686.933v273.067l-477.867-477.867 477.867-477.867v279.893c341.333 0 580.267-109.227 750.933-348.16-68.267 341.333-273.067 682.667-750.933 750.933z" />
<glyph unicode="&#xe95d;" glyph-name="ribbon" horiz-adv-x="796" d="M682.667 960h-568.889c-62.593-0.323-113.209-51.139-113.209-113.776 0 0 0-0.001 0-0.001v0l-0.569-910.222 398.222 170.667 398.222-170.667v910.222c-0.193 62.76-51.018 113.584-113.759 113.778h-0.019z" />
<glyph unicode="&#xe95e;" glyph-name="road-arrow" horiz-adv-x="717" d="M660.033-64h-603.009c-31.481 0.083-56.969 25.622-56.969 57.115 0 5.501 0.778 10.82 2.229 15.854l-0.1-0.403 194.965 694.712h-107.995c-0.462-0.014-1.006-0.022-1.552-0.022-25.804 0-47.515 17.523-53.882 41.319l-0.089 0.39c-1.005 3.918-1.582 8.417-1.582 13.050 0 21.15 12.023 39.492 29.607 48.564l0.306 0.143 285.189 150.456c3.3 1.761 7.218 2.795 11.378 2.795s8.077-1.034 11.51-2.86l-0.133 0.064 285.007-150.32c18.018-9.174 30.144-27.583 30.144-48.824 0-4.64-0.579-9.145-1.668-13.447l0.081 0.377c-6.456-24.185-28.167-41.709-53.97-41.709-0.546 0-1.090 0.008-1.632 0.023l0.080-0.002h-107.904l194.965-694.689c1.356-4.637 2.136-9.964 2.136-15.473 0-31.543-25.57-57.113-57.112-57.115v0zM358.551 907.823l-273.538-144.267c-4.915-2.685-4.187-5.598-3.937-6.553 0.455-1.775 2.093-4.756 8.055-4.756h140.239c13.534-0.001 24.505-10.973 24.505-24.507 0-2.382-0.34-4.685-0.974-6.863l0.043 0.173-203.703-725.886c-0.193-0.662-0.304-1.421-0.304-2.207 0-4.512 3.657-8.169 8.169-8.169 0.003 0 0.006 0 0.008 0h603.008c4.505 0.008 8.154 3.663 8.154 8.169 0 0.786-0.111 1.546-0.318 2.265l0.014-0.058-203.862 725.886c-0.575 1.978-0.905 4.25-0.905 6.599 0 13.517 10.943 24.478 24.454 24.507h140.288c5.962 0 7.6 2.958 8.055 4.756 0.25 0.956 0.978 3.891-4.187 6.667zM363.899 580.833c-13.513 0.013-24.462 10.97-24.462 24.484v0 97.847c0 13.516 10.957 24.473 24.473 24.473s24.473-10.957 24.473-24.473v0-97.847c0-13.522-10.962-24.484-24.484-24.484v0zM363.899 286.974c-13.513 0.013-24.462 10.97-24.462 24.484v0 146.929c0 13.516 10.957 24.473 24.473 24.473s24.473-10.957 24.473-24.473v0-146.907c0-0.014 0-0.030 0-0.046 0-13.51-10.952-24.462-24.462-24.462-0.008 0-0.016 0-0.024 0h0.001zM363.899 25.791c-13.51 0-24.462 10.952-24.462 24.462 0 0.008 0 0.016 0 0.024v-0.001 97.847c0 13.516 10.957 24.473 24.473 24.473s24.473-10.957 24.473-24.473v0-97.847c0-0.007 0-0.015 0-0.023 0-13.51-10.952-24.462-24.462-24.462-0.008 0-0.016 0-0.024 0h0.001z" />
<glyph unicode="&#xe95f;" glyph-name="rocket" horiz-adv-x="813" d="M770.97-64.051c0.138-0.002 0.3-0.003 0.463-0.003 22.933 0 41.523 18.591 41.523 41.523 0 0.163-0.001 0.326-0.003 0.488v-0.025 86.016c0.001 0.289 0.002 0.632 0.002 0.975 0 86.23-36.131 164.022-94.079 219.062l-0.131 0.123c4.139 23.43 6.729 50.667 7.163 78.427l0.005 0.421c0 291.84-277.504 573.44-289.792 584.704-7.604 7.591-18.102 12.284-29.696 12.284s-22.092-4.694-29.697-12.285l0.001 0.001c-11.264-12.288-287.744-293.888-287.744-584.704 0.011-27.125 2.245-53.72 6.53-79.623l-0.386 2.823c-58.664-56.038-95.157-134.854-95.232-222.194v-86.030c0-23.187 18.797-41.984 41.984-41.984s41.984 18.797 41.984 41.984v0 86.016c0.251 45.258 13.577 87.353 36.386 122.762l-0.546-0.906c15.576-46.053 32.536-84.961 52.305-122.149l-2.129 4.389c6.892-13.48 20.681-22.549 36.589-22.549 0.457 0 0.912 0.007 1.365 0.022l-0.066-0.002h157.696v-67.584c0-23.187 18.797-41.984 41.984-41.984s41.984 18.797 41.984 41.984v0 67.584h158.72c16.114 0.556 30.053 9.368 37.772 22.318l0.116 0.21c17.663 32.485 34.294 70.738 47.635 110.501l1.517 5.211c21.816-33.933 34.789-75.353 34.816-119.801v-86.023c-0.014-0.397-0.022-0.864-0.022-1.333 0-22.452 18.201-40.653 40.653-40.653 0.116 0 0.231 0 0.347 0.001h-0.018zM581.53 129.485h-133.12v67.584c0 23.187-18.797 41.984-41.984 41.984s-41.984-18.797-41.984-41.984v0-67.584h-131.072c-20.597 41.396-37.859 89.585-49.332 139.975l-0.844 4.409c-0.208 3.367-0.941 6.506-2.12 9.416l0.072-0.2c-4.903 23.863-7.87 51.42-8.19 79.613l-0.002 0.259c0 202.752 164.864 413.696 233.472 492.544 69.632-78.848 235.52-288.768 235.52-492.544-2.936-85.701-24.938-165.623-61.867-236.532l1.451 3.060zM256.922 481.741c0-83.7 67.852-151.552 151.552-151.552s151.552 67.852 151.552 151.552c0 83.7-67.852 151.552-151.552 151.552v0c-83.63-0.174-151.378-67.922-151.552-151.535v-0.017zM408.474 548.301c37.326 0 67.584-30.258 67.584-67.584s-30.258-67.584-67.584-67.584c-37.326 0-67.584 30.258-67.584 67.584v0c0 0.015 0 0.033 0 0.051 0 37.297 30.235 67.533 67.533 67.533 0.018 0 0.036 0 0.054 0h-0.003z" />
<glyph unicode="&#xe960;" glyph-name="hamburger" d="M0 819.2h1024v-102.4h-1024v102.4zM0 512h1024v-102.4h-1024v102.4zM0 204.8h1024v-102.4h-1024v102.4z" />
<glyph unicode="&#xe961;" glyph-name="send" horiz-adv-x="1195" d="M0.597-64l1194.059 512.030-1194.059 511.97-0.597-398.239 853.343-113.492-853.343-114.030z" />
<glyph unicode="&#xe962;" glyph-name="sheets" d="M93.070 773.803h-93.070v-744.732c0.161-51.336 41.734-92.909 93.055-93.070h744.747v93.070h-744.732zM930.93 960h-651.662c-51.336-0.161-92.909-41.734-93.070-93.055v-651.677c0.161-51.336 41.734-92.909 93.055-93.070h651.677c51.336 0.161 92.909 41.734 93.070 93.055v651.677c-0.161 51.336-41.734 92.909-93.055 93.070h-0.015zM930.93 215.268h-651.662v651.662h651.662z" />
<glyph unicode="&#xe963;" glyph-name="star" horiz-adv-x="1078" d="M538.947 137.027l333.069-201.027-88.387 378.88 294.265 254.922-387.503 32.876-151.444 357.322-151.444-357.322-387.503-32.876 294.265-254.922-88.387-378.88z" />
<glyph unicode="&#xe964;" glyph-name="balance" d="M511.89 959.89c-282.709 0-511.89-229.181-511.89-511.89s229.181-511.89 511.89-511.89c282.709 0 511.89 229.181 511.89 511.89v0c-0.375 282.558-229.332 511.515-511.854 511.89h-0.036zM678.488 586.007h-106.447c0.138 1.639 0.216 3.548 0.216 5.475 0 16.016-5.418 30.767-14.52 42.519l0.119-0.159c-9.435 9.55-22.531 15.465-37.008 15.465-0.946 0-1.886-0.025-2.82-0.075l0.13 0.006c-1.333 0.138-2.88 0.216-4.445 0.216-12.978 0-24.697-5.392-33.039-14.057l-0.014-0.015c-6.909-9.364-11.057-21.132-11.057-33.87 0-0.928 0.022-1.851 0.066-2.768l-0.005 0.13c-0.050-0.825-0.079-1.789-0.079-2.76 0-12.089 4.443-23.14 11.786-31.609l-0.051 0.060c13.532-12.202 29.286-22.276 46.528-29.506l1.087-0.405c43.261-12.144 80.796-32.441 112.606-59.305l-0.441 0.363c23.053-22.812 37.329-54.456 37.329-89.434 0-2.232-0.058-4.451-0.173-6.654l0.013 0.308c0.076-1.591 0.119-3.456 0.119-5.33 0-33.477-13.813-63.728-36.051-85.365l-0.027-0.026c-26.148-23.432-60.313-38.398-97.921-40.341l-0.388-0.016v-64.88h-51.354v64.88c-40.991 2.281-78.018 17.593-107.423 41.82l0.317-0.253c-25.243 23.394-40.992 56.726-40.992 93.736 0 4.476 0.23 8.899 0.68 13.256l-0.046-0.546 0.66 1.869h106.227c-0.202-1.967-0.318-4.251-0.318-6.562 0-17.925 6.939-34.228 18.278-46.371l-0.036 0.039c12.094-9.846 27.691-15.811 44.68-15.811 1.226 0 2.444 0.031 3.655 0.092l-0.17-0.007c2.231-0.401 4.8-0.631 7.422-0.631 24.293 0 43.986 19.693 43.986 43.986 0 2.045-0.14 4.057-0.41 6.028l0.026-0.229c0.086 1.161 0.135 2.515 0.135 3.88 0 13.37-4.697 25.643-12.531 35.259l0.080-0.102c-13.228 12.047-28.974 21.595-46.327 27.745l-0.958 0.296c-43.521 13.349-81.289 33.729-114.022 60.106l0.647-0.504c-22.29 23.858-35.976 56-35.976 91.339 0 36.126 14.302 68.911 37.554 93.003l-0.038-0.040c27.072 23.833 62.398 38.868 101.196 40.348l0.303 0.009v68.399h51.024v-69.278c37.438-3.533 70.419-20.242 94.751-45.375l0.039-0.041c21.079-23.623 33.961-54.956 33.961-89.297 0-2.59-0.073-5.163-0.218-7.717l0.016 0.354z" />
<glyph unicode="&#xe965;" glyph-name="stock-arrow" horiz-adv-x="1707" d="M1194.667 960l195.447-195.447-416.427-416.427-341.333 341.333-632.354-633.105 120.354-120.354 512 512 341.333-341.333 537.6 536.781 195.379-195.447v512z" />
<glyph unicode="&#xe966;" glyph-name="student" horiz-adv-x="1096" d="M1090.413 212.567v325.991c-0.055 39.358-31.946 71.25-71.299 71.305h-446.677v8.386c-0.023 11.013-3.93 21.11-10.425 28.996l0.063-0.079c4.708 5.679 8.095 12.621 9.592 20.241l0.047 0.29c17.931 10.58 29.771 29.802 29.771 51.789 0 10.676-2.792 20.7-7.685 29.382l0.155-0.3c4.714 8.334 7.5 18.298 7.518 28.911v0.006c-0.064 21.815-11.685 40.902-29.059 51.466l-0.267 0.151c0.215 1.89 0.337 4.080 0.337 6.299 0 0.014 0 0.027 0 0.041v-0.002c-0.035 30.446-22.541 55.624-51.822 59.844l-0.325 0.038c-10.631 17.888-29.834 29.703-51.801 29.76h-0.008c-0.001 0-0.002 0-0.004 0-2.933 0-5.813-0.228-8.622-0.667l0.312 0.040c-11.463 9.383-26.255 15.085-42.377 15.133h-0.011c-2.072 0-4.121 0-6.217-0.313-12.245 9.244-27.721 14.805-44.496 14.805s-32.251-5.561-44.684-14.941l0.188 0.136c-2.096 0.217-4.169 0.313-6.217 0.313-0.035 0-0.076 0-0.117 0-15.977 0-30.651-5.579-42.18-14.896l0.127 0.1c-19.537-2.060-36.108-13.16-45.633-28.982l-0.152-0.272c-29.606-4.258-52.112-29.437-52.147-59.879v-0.004c0-0.011 0-0.024 0-0.038 0-2.219 0.123-4.41 0.361-6.566l-0.024 0.266c-17.642-10.715-29.263-29.802-29.327-51.608v-0.009c0.018-10.619 2.803-20.584 7.673-29.216l-0.155 0.299c-4.762-8.399-7.568-18.448-7.568-29.152 0-22.022 11.878-41.27 29.578-51.687l0.281-0.153c0.884-4.535 2.311-8.57 4.24-12.303l-0.119 0.254c-11.727-8.401-19.278-21.985-19.278-37.332 0-0.032 0-0.064 0-0.097v0.005-28.917c0.027-25.369 20.585-45.927 45.951-45.954h7.545l1.229-7.711c3.020-18.516 12.456-34.421 25.908-45.69l0.117-0.095 6.169-5.157v-47.93c-0.018-5.366-3.54-9.904-8.397-11.447l-0.085-0.023-127.139-39.134c-30.93-9.549-53.015-37.884-53.015-71.378 0-0.084 0-0.169 0-0.253v0.013-210.757c0-0.036 0-0.077 0-0.119 0-20.984 7.264-40.271 19.416-55.483l-0.138 0.178h-38.556c-19.321-0.109-34.941-15.797-34.941-35.134 0 0 0 0 0-0.001v0-36.146c0.027-19.366 15.72-35.059 35.083-35.086h1014.219c19.341 0.027 35.018 15.678 35.086 35.007v36.153c-0.027 19.366-15.72 35.059-35.083 35.086h-184.349l-12.386 92.824h160.514c39.392 0.055 71.305 32.001 71.305 71.401v0zM207.745 577.259c-6.654 0-12.049 5.394-12.049 12.049v0 28.917c0.028 4.359 2.366 8.165 5.849 10.259l0.054 0.030 8.193-51.255zM210.154 675.697c0 0.506 0.12 1.036 0.169 1.542 0.049 0.482 0.077 1.042 0.077 1.609 0 7.359-4.713 13.618-11.284 15.922l-0.118 0.036c-10.415 3.673-17.762 13.388-17.856 24.833v0.011c0.024 6.808 2.649 12.998 6.932 17.633l-0.016-0.018c2.729 2.986 4.401 6.979 4.401 11.362s-1.672 8.376-4.412 11.375l0.012-0.013c-4.269 4.616-6.894 10.807-6.916 17.611v0.004c0.093 12.108 8.289 22.276 19.429 25.355l0.186 0.044c7.302 1.961 12.59 8.521 12.59 16.317 0 2.311-0.465 4.513-1.306 6.518l0.041-0.111c-1.222 2.906-1.938 6.284-1.952 9.826v0.005c0 0.002 0 0.005 0 0.008 0 14.411 11.5 26.136 25.823 26.499l0.034 0.001c0.723 0 1.446-0.169 2.193-0.217 0.322-0.022 0.698-0.034 1.077-0.034 7.361 0 13.621 4.715 15.924 11.29l0.036 0.118c3.618 10.242 13.077 17.51 24.277 17.831l0.038 0.001h0.988c0.097-0.002 0.211-0.003 0.326-0.003 4.618 0 8.806 1.84 11.871 4.826l-0.004-0.004c5.968 5.979 14.219 9.679 23.333 9.679 2.725 0 5.373-0.331 7.906-0.954l-0.226 0.047c1.128-0.269 2.424-0.423 3.756-0.423 4.495 0 8.579 1.758 11.602 4.624l-0.008-0.007c7.247 6.937 17.095 11.207 27.941 11.207s20.694-4.27 27.956-11.221l-0.015 0.014c3.016-2.859 7.1-4.616 11.594-4.616 1.332 0 2.627 0.154 3.87 0.446l-0.114-0.023c2.299 0.577 4.938 0.908 7.654 0.908 9.81 0 18.611-4.32 24.604-11.16l0.032-0.038c3.1-3.435 7.568-5.584 12.538-5.584 1.956 0 3.834 0.333 5.581 0.945l-0.118-0.036c2.335 0.854 5.030 1.363 7.841 1.398h0.015c11.451-0.091 21.164-7.428 24.787-17.647l0.057-0.185c2.339-6.693 8.599-11.408 15.96-11.408 0.379 0 0.755 0.012 1.127 0.037l-0.051-0.003c0.699 0 1.374 0 2.193 0.217 14.343-0.264 25.869-11.953 25.869-26.334 0-3.599-0.722-7.029-2.029-10.154l0.064 0.174c-0.8-1.894-1.264-4.096-1.264-6.407 0-7.795 5.288-14.356 12.472-16.29l0.118-0.027c11.326-3.123 19.522-13.291 19.615-25.388v-0.011c-0.024-6.808-2.649-12.998-6.932-17.633l0.016 0.018c-2.729-2.986-4.401-6.979-4.401-11.362s1.672-8.376 4.412-11.375l-0.012 0.013c4.269-4.616 6.894-10.807 6.916-17.611v-0.004c-0.094-11.456-7.442-21.172-17.671-24.787l-0.186-0.057c-6.69-2.341-11.403-8.599-11.403-15.958 0-0.567 0.028-1.127 0.082-1.679l-0.006 0.070c0-0.53 0-1.036 0.193-1.542-0.297-5.282-3.955-9.633-8.856-10.969l-0.084-0.020c-0.554-0.145-16.868-0.506-16.868-0.506l-9.591 58.412c-1.389 8.103-8.362 14.193-16.757 14.193-0.446 0-0.888-0.017-1.326-0.051l0.058 0.004c-0.795 0-1.566-0.145-2.41-0.265v0c-9.036 0.154-16.954 4.806-21.627 11.808l-0.061 0.097c-3.054 4.65-8.246 7.679-14.145 7.679s-11.091-3.028-14.106-7.615l-0.039-0.064c-4.819-7.173-12.902-11.831-22.073-11.831s-17.254 4.657-22.013 11.736l-0.060 0.095c-3.054 4.65-8.246 7.679-14.145 7.679s-11.091-3.028-14.106-7.615l-0.039-0.064c-4.819-7.173-12.902-11.831-22.073-11.831s-17.254 4.657-22.013 11.736l-0.060 0.095c-3.054 4.65-8.246 7.679-14.145 7.679s-11.091-3.028-14.106-7.615l-0.039-0.064c-4.734-7.099-12.651-11.751-21.665-11.904h-0.023c-0.771 0-1.542 0.193-2.41 0.265-0.41 0.035-0.887 0.056-1.369 0.056-8.374 0-15.323-6.102-16.643-14.103l-0.013-0.098-9.759-58.581s-16.242 0.361-16.868 0.506c-4.921 1.453-8.488 5.837-8.698 11.086l-0.001 0.023zM538.58 618.249v-8.386h-8.892l2.988 18.651c3.532-2.121 5.867-5.916 5.904-10.26v-0.005zM235.842 630.298h2.41c0.035 0 0.077 0 0.118 0 15.523 0 28.409 11.29 30.894 26.107l0.025 0.184 7.856 47.207c9.527 1.848 17.934 5.704 25.092 11.122l-0.151-0.11c9.964-7.534 22.562-12.067 36.219-12.067s26.254 4.533 36.371 12.177l-0.152-0.11c9.964-7.534 22.562-12.067 36.219-12.067s26.254 4.533 36.371 12.177l-0.152-0.11c7.007-5.309 15.414-9.164 24.56-10.951l0.381-0.062 7.856-47.207c1.823-11.018 9.181-19.975 19.069-24.022l0.209-0.076-3.639-22.676h-19.423c-39.358-0.055-71.25-31.946-71.305-71.299v-75.358c-2.856-1.154-6.168-1.826-9.637-1.831h-55.426c-6.439 0.026-12.332 2.343-16.91 6.179l0.041-0.034-58.147 48.46c-7.41 6.21-12.564 14.899-14.185 24.776l-0.032 0.237zM250.301 392.937c18.932 5.903 32.435 23.272 32.435 43.796 0 0.047 0 0.094 0 0.141v-0.007 19.615l18.025-15.013c10.409-8.706 23.937-13.994 38.699-14.001h55.426c3.408 0.005 6.744 0.294 9.992 0.845l-0.353-0.049v-109.258c-9.065-1.566-19.505-2.461-30.154-2.461-58.651 0-110.96 27.152-145.043 69.572l-0.282 0.363zM94.39 314.693c0 0.044 0 0.095 0 0.147 0 18.289 12.041 33.765 28.628 38.934l0.289 0.078 71.256 21.929c40.298-56.69 105.736-93.229 179.708-93.229 10.671 0 21.164 0.76 31.428 2.23l-1.175-0.138v-72.052c0.055-39.358 31.946-71.25 71.299-71.305h73.575v-91.571c0-0.386 0-0.747 0-1.133h-92.751v19.278c-0.055 39.358-31.946 71.25-71.299 71.305h-181.242c-0.626 0-1.133 0.507-1.133 1.133v0 108.487c0 9.376-7.601 16.977-16.977 16.977s-16.977-7.601-16.977-16.977v-108.656c0.014-19.377 15.711-35.083 35.083-35.11h109.791v-56.605h-164.104c-30.61 0-55.424 24.814-55.424 55.424v0zM422.574 67.669v-19.278h-74.702v56.629h37.351c20.617-0.027 37.324-16.734 37.351-37.349v-0.003zM1055.327 14.462c0.626 0 1.133-0.507 1.133-1.133v0-36.146c0-0.626-0.507-1.133-1.133-1.133v0h-1014.216c-0.626 0-1.133 0.507-1.133 1.133v0 36.146c0 0.626 0.507 1.133 1.133 1.133v0zM583.256 48.415c0 0.386 0 0.747 0 1.133v91.571h53.015l-12.386-92.824h-40.628zM658.176 48.415l29.471 220.998c1.315 9.473 9.356 16.689 19.084 16.7h81.451c9.729-0.010 17.77-7.226 19.074-16.598l0.012-0.101 29.471-220.998zM856.113 175.192c-0.714 0-1.417-0.044-2.108-0.129l0.083 0.008-13.181 98.8c-3.665 26.161-25.856 46.087-52.717 46.171h-81.459c-26.87-0.084-49.060-20.010-52.693-45.889l-0.032-0.282-13.181-98.8c-0.607 0.076-1.31 0.12-2.024 0.12h-163.020c-20.617 0.027-37.324 16.734-37.351 37.349v326.018c0.027 20.617 16.734 37.324 37.349 37.351h543.33c20.617-0.027 37.324-16.734 37.351-37.349v-325.994c-0.027-20.617-16.734-37.324-37.349-37.351h-0.003zM747.457 464.989c-29.386 0-53.207-23.822-53.207-53.207s23.822-53.207 53.207-53.207c29.386 0 53.207 23.822 53.207 53.207v0c-0.027 29.375-23.833 53.18-53.205 53.207h-0.003zM747.457 392.552c-10.647 0-19.278 8.631-19.278 19.278s8.631 19.278 19.278 19.278c10.647 0 19.278-8.631 19.278-19.278v0c0-10.647-8.631-19.278-19.278-19.278v0z" />
<glyph unicode="&#xe967;" glyph-name="target" d="M873.984 809.984l-72.192-72.192c74.571-74.266 120.716-177.027 120.716-290.565 0-226.467-183.588-410.055-410.055-410.055s-410.055 183.588-410.055 410.055c0 208.258 155.252 380.255 356.332 406.568l2.070 0.221v-103.424c-146.135-25.469-255.819-151.362-255.819-302.873 0-169.662 137.538-307.2 307.2-307.2s307.2 137.538 307.2 307.2c0 84.988-34.512 161.916-90.286 217.532l-0.007 0.007-72.192-72.363c37.623-37.23 60.92-88.874 60.92-145.959 0-113.391-91.921-205.312-205.312-205.312s-205.312 91.921-205.312 205.312c0 95.014 64.541 174.953 152.173 198.369l1.435 0.326v-109.568c-30.796-17.782-51.191-50.54-51.2-88.063v-0.001c0-56.554 45.846-102.4 102.4-102.4s102.4 45.846 102.4 102.4v0c0 0.101 0.001 0.221 0.001 0.34 0 37.429-20.411 70.092-50.709 87.464l-0.492 0.26v423.936h-51.2c-0.033 0-0.071 0-0.109 0-282.77 0-512-229.23-512-512s229.23-512 512-512c282.77 0 512 229.23 512 512 0 141.358-57.286 269.336-149.908 361.986l0.002-0.002z" />
<glyph unicode="&#xe968;" glyph-name="timelapse" d="M729.088 665.088c-55.406 55.665-132.087 90.112-216.814 90.112-0.096 0-0.192 0-0.288 0h0.015v-307.2l-217.088-217.088c56.236-60.232 136.109-97.775 224.751-97.775 169.662 0 307.2 137.538 307.2 307.2 0 88.642-37.543 168.515-97.596 224.586l-0.179 0.165zM512 960c-282.77 0-512-229.23-512-512s229.23-512 512-512c282.77 0 512 229.23 512 512v0c0 282.77-229.23 512-512 512v0zM512 38.4c-226.216 0-409.6 183.384-409.6 409.6s183.384 409.6 409.6 409.6c226.216 0 409.6-183.384 409.6-409.6v0c0-226.216-183.384-409.6-409.6-409.6v0z" />
<glyph unicode="&#xe969;" glyph-name="todo-list" horiz-adv-x="768" d="M767.977 752.606c-0.070 6.597-2.761 12.552-7.078 16.885l-183.409 183.386c-4.4 4.39-10.473 7.104-17.18 7.104-13.428 0-24.315-10.881-24.326-24.307v-157.014c0.052-28.025 22.763-50.729 50.787-50.768h132.601v-741.217c0-1.119-0.907-2.025-2.025-2.025v0h-666.738c-1.119 0-2.025 0.907-2.025 2.025v0 922.647c0 1.119 0.907 2.025 2.025 2.025v0h403.934c13.435 0 24.326 10.891 24.326 24.326s-10.891 24.326-24.326 24.326v0h-403.866c-27.972-0.039-50.638-22.704-50.677-50.673v-922.651c0.026-27.978 22.699-50.651 50.674-50.677h666.74c27.978 0.026 50.651 22.699 50.677 50.674v765.613c-0.038 0.129-0.076 0.234-0.121 0.337l0.007-0.018zM586.775 776.59v0c-1.207 0.062-2.162 1.056-2.162 2.273 0 0.001 0 0.002 0 0.003v0 98.099l100.466-100.375h-98.304zM596.036 632.161h-212.696c-0.222 0.007-0.482 0.011-0.744 0.011-13.435 0-24.326-10.891-24.326-24.326s10.891-24.326 24.326-24.326c0.262 0 0.522 0.004 0.782 0.012l-0.038-0.001h212.696c0.222-0.007 0.482-0.011 0.744-0.011 13.435 0 24.326 10.891 24.326 24.326s-10.891 24.326-24.326 24.326c-0.262 0-0.522-0.004-0.782-0.012l0.038 0.001zM596.036 415.346h-212.696c-13.435 0-24.326-10.891-24.326-24.326s10.891-24.326 24.326-24.326h212.696c13.435 0 24.326 10.891 24.326 24.326s-10.891 24.326-24.326 24.326v0zM517.848 198.485h-133.416c-13.435 0-24.326-10.891-24.326-24.326s10.891-24.326 24.326-24.326h133.416c13.435 0 24.326 10.891 24.326 24.326s-10.891 24.326-24.326 24.326v0zM280.667 684.112h-108.772c-12.090 0-21.891-9.801-21.891-21.891v0-108.681c0-12.090 9.801-21.891 21.891-21.891v0h108.681c12.090 0 21.891 9.801 21.891 21.891v0 108.794c-0.064 12.009-9.789 21.726-21.795 21.777h-0.005zM258.776 575.431h-64.899v64.899h64.899zM280.667 467.251h-108.772c-12.090 0-21.891-9.801-21.891-21.891v0-108.681c0-12.090 9.801-21.891 21.891-21.891v0h108.681c12.090 0 21.891 9.801 21.891 21.891v0 108.681c0 0 0 0 0 0 0 12.058-9.749 21.839-21.795 21.891h-0.005zM258.776 358.571h-64.899v64.899h64.899zM280.667 250.391h-108.772c-12.090 0-21.891-9.801-21.891-21.891v0-108.681c0-12.090 9.801-21.891 21.891-21.891v0h108.681c12.090 0 21.891 9.801 21.891 21.891v0 108.681c0 0 0 0 0 0 0 12.058-9.749 21.839-21.795 21.891h-0.005zM258.776 141.71h-64.899v64.899h64.899z" />
<glyph unicode="&#xe96a;" glyph-name="trash" horiz-adv-x="796" d="M56.883 49.766c0.203-62.75 51.017-113.563 113.747-113.766h455.136c62.75 0.203 113.563 51.017 113.766 113.747v682.72h-682.65zM796.467 903.117h-199.117l-56.883 56.883h-284.467l-56.883-56.883h-199.117v-113.766h796.467z" />
<glyph unicode="&#xe96b;" glyph-name="truck" horiz-adv-x="1722" d="M1705.391 470.296l-99.518 57.72-56.763 242.594c-15.035 63.301-71.087 109.661-137.968 109.661-0.114 0-0.227 0-0.341 0h-285.445v45.51c0 19.025-15.423 34.448-34.448 34.448v0h-1056.42c-19.025 0-34.448-15.423-34.448-34.448v0-817.96c0-19.025 15.423-34.448 34.448-34.448v0h110.12c16.497-79.072 85.618-137.622 168.415-137.622s151.918 58.55 168.219 136.505l0.195 1.117h694.558c16.497-79.072 85.618-137.622 168.415-137.622s151.918 58.55 168.219 136.505l0.195 1.117h175.19c19.025 0 34.448 15.423 34.448 34.448v0 333.002c-0.102 12.517-6.864 23.431-16.912 29.385l-0.16 0.087zM312.984 4.629c-57.076 0-103.345 46.269-103.345 103.345s46.269 103.345 103.345 103.345c57.076 0 103.345-46.269 103.345-103.345v0c0-57.076-46.269-103.345-103.345-103.345v0zM1056.726 265.174h-309.462c-17.674-1.61-31.413-16.358-31.413-34.315s13.739-32.705 31.279-34.305l0.134-0.010h309.462v-54.429h-575.366c-16.497 79.072-85.618 137.622-168.415 137.622s-151.918-58.55-168.219-136.505l-0.195-1.117h-75.863v177.448h988.059v-54.429zM1056.726 846.052v-457.858h-988.059v503.139h988.059zM1324.391 811.604h86.542c0.066 0 0.144 0 0.222 0 34.553 0 63.508-23.971 71.14-56.191l0.099-0.496 50.295-214.882h-208.298v271.531zM1344.371 4.476c-54.55 0.079-99.188 42.41-102.944 96.015l-0.018 0.326c0.44 2.065 0.692 4.439 0.692 6.871s-0.252 4.805-0.731 7.095l0.039-0.224c3.642 54.103 48.42 96.609 103.126 96.609 57.076 0 103.345-46.269 103.345-103.345s-46.269-103.345-103.345-103.345c-0.057 0-0.115 0-0.172 0h0.009zM1653.833 304.828h-65.337v36.324h65.261zM1653.833 409.781h-99.518c-19.025 0-34.448-15.423-34.448-34.448v0-104.953c0-19.025 15.423-34.448 34.448-34.448v0h99.518v-94.236h-141.086c-16.497 79.072-85.618 137.622-168.415 137.622s-151.918-58.55-168.219-136.505l-0.195-1.117h-50.563v670.061h130.407v-305.864c0-19.025 15.423-34.448 34.448-34.448h276.66l87.116-50.601v-11.062zM631.441 265.174h-28.937c-0.909 0.085-1.967 0.134-3.035 0.134-19.025 0-34.448-15.423-34.448-34.448s15.423-34.448 34.448-34.448c1.069 0 2.126 0.049 3.169 0.144l-0.134-0.010h28.937c0.909-0.085 1.967-0.134 3.035-0.134 19.025 0 34.448 15.423 34.448 34.448s-15.423 34.448-34.448 34.448c-1.069 0-2.126-0.049-3.169-0.144l0.134 0.010z" />
<glyph unicode="&#xe96c;" glyph-name="two-layers" horiz-adv-x="967" d="M482.731 71.851l-395.776 307.883-86.955-68.267 483.243-375.467 483.243 375.467-87.552 68.267-396.203-307.883zM483.243 208.384l483.328 376.149-483.328 375.467-483.243-375.467 87.552-68.267z" />
<glyph unicode="&#xe96d;" glyph-name="user" horiz-adv-x="896" d="M768 640c-0.005 176.727-143.272 319.991-320 319.991-176.731 0-320-143.269-320-320 0-97.127 43.272-184.147 111.589-242.834l0.425-0.357c-143.777-76.413-240.014-225.245-240.014-396.554 0-0.087 0-0.173 0-0.26v0.013c0-35.346 28.654-64 64-64s64 28.654 64 64v0c0 176.731 143.269 320 320 320s320-143.269 320-320v0c0-35.346 28.654-64 64-64s64 28.654 64 64v0c0 0.063 0 0.137 0 0.212 0 171.319-96.236 320.16-237.598 395.414l-2.416 1.174c68.736 58.914 112.014 145.828 112.014 242.85 0 0.123 0 0.246 0 0.368v-0.019zM448 448c-106.039 0-192 85.961-192 192s85.961 192 192 192c106.039 0 192-85.961 192-192v0c0-106.039-85.961-192-192-192v0z" />
<glyph unicode="&#xe96e;" glyph-name="wallet" horiz-adv-x="1081" d="M1023.957 106.688v-56.896c-0.172-62.777-51.016-113.621-113.776-113.792h-796.389c-0.013 0-0.028 0-0.043 0-62.822 0-113.749 50.927-113.749 113.749 0 0.015 0 0.030 0 0.046v-0.002 796.416c0 0.013 0 0.028 0 0.043 0 62.822 50.927 113.749 113.749 113.749 0.015 0 0.030 0 0.046 0h796.413c62.777-0.172 113.621-51.016 113.792-113.776v-56.87h-512.022c-0.013 0-0.028 0-0.043 0-62.822 0-113.749-50.927-113.749-113.749 0-0.015 0-0.030 0-0.046v0.002-455.082c0-0.013 0-0.028 0-0.043 0-62.822 50.927-113.749 113.749-113.749 0.015 0 0.030 0 0.046 0h-0.002zM511.978 220.48h568.874v455.082h-568.874zM739.52 362.677c-47.134 0-85.344 38.21-85.344 85.344s38.21 85.344 85.344 85.344c47.134 0 85.344-38.21 85.344-85.344v0c0-0.039 0-0.084 0-0.13 0-47.063-38.152-85.214-85.214-85.214-0.046 0-0.091 0-0.137 0h0.007z" />
<glyph unicode="&#xe96f;" glyph-name="warning" horiz-adv-x="1186" d="M0-64h1185.665l-592.833 1024zM646.721 97.665h-107.777v107.836h107.777zM646.721 313.219h-107.777v215.613h107.777z" />
<glyph unicode="&#xe970;" glyph-name="whatshot" horiz-adv-x="768" d="M456.071 960c19.371-68.155 32.122-147.060 35.459-228.393l0.067-2.043c0.299-3.741 0.47-8.101 0.47-12.499 0-91.155-73.215-165.21-164.048-166.567l-0.128-0.002c-96.327 0.243-174.321 78.387-174.321 174.747 0 1.52 0.019 3.034 0.058 4.545l-0.005-0.223 1.44 17.283c-96.442-114.113-155.066-262.897-155.066-425.372 0-0.497 0.001-0.994 0.002-1.491v0.077c0-212.11 171.95-384.060 384.060-384.060s384.060 171.95 384.060 384.060v0c-1.494 258.799-122.406 489.055-310.375 638.653l-1.674 1.287zM370.138 80.023c-0.631-0.009-1.376-0.015-2.122-0.015-83.605 0-151.494 67.291-152.461 150.667l-0.001 0.091c0 0.065 0 0.143 0 0.221 0 77.597 58.78 141.464 134.243 149.506l0.658 0.057c89.243 14.685 166.080 59.472 221.4 123.392l0.395 0.467c17.973-57.679 28.326-123.996 28.326-192.731 0-0.429 0-0.857-0.001-1.286v0.067c0-127.266-103.17-230.436-230.436-230.436v0z" />
<glyph unicode="&#xe971;" glyph-name="writing-board" horiz-adv-x="838" d="M744.735 866.898h-194.56c-19.73 54.488-71.028 92.721-131.256 92.721s-111.527-38.233-130.949-91.752l-0.307-0.969h-194.56c-51.348-0.139-92.939-41.716-93.102-93.046v-744.751c0.139-51.363 41.739-92.963 93.089-93.102h651.646c51.363 0.139 92.963 41.739 93.102 93.089v744.748c-0.163 51.345-41.754 92.922-93.089 93.061h-0.013zM418.898 866.898c25.698 0 46.531-20.832 46.531-46.531s-20.832-46.531-46.531-46.531c-25.698 0-46.531 20.832-46.531 46.531v0c0.093 25.661 20.87 46.438 46.522 46.531h0.009zM744.735 29.061h-651.633v744.776h93.061v-139.674h465.469v139.674h93.102z" />
<glyph unicode="&#xe972;" glyph-name="zoom-in" d="M731.819 315.961h-46.251l-16.384 15.815c57.138 66.266 91.937 153.198 91.937 248.258 0 210.506-170.649 381.156-381.156 381.156s-381.156-170.649-381.156-381.156c0-210.506 170.649-381.156 381.156-381.156 95.060 0 181.993 34.799 248.753 92.354l-0.495-0.417 15.815-16.384v-46.251l292.75-292.181 87.211 87.211zM380.53 315.961c-145.476 0.032-263.396 117.972-263.396 263.452 0 145.501 117.952 263.452 263.452 263.452s263.452-117.952 263.452-263.452v0c0-0.101 0-0.221 0-0.342 0-145.312-117.799-263.111-263.111-263.111-0.12 0-0.24 0-0.36 0h0.019zM526.905 550.4h-117.305v-117.077h-58.311v117.077h-117.077v58.311h117.077v117.077h58.311v-117.077h117.077z" />
</font>
</defs>
</svg>
